<svg id="svg" version="1.1" xmlns="http://www.w3.org/2000/svg" xmlns:xlink="http://www.w3.org/1999/xlink" width="400" height="400" viewBox="0, 0, 400,400"><g id="svgg"><path id="path0" d="M101.871 35.462 C 101.411 35.923,101.548 370.479,102.008 370.195 C 102.231 370.057,102.312 369.781,102.188 369.581 C 102.053 369.363,116.680 369.211,138.592 369.204 C 170.134 369.194,175.253 369.272,175.443 369.769 C 175.565 370.086,176.015 370.319,176.442 370.287 C 176.870 370.255,177.148 370.042,177.061 369.814 C 176.954 369.535,180.262 369.410,187.232 369.431 C 192.913 369.448,197.498 369.358,197.419 369.231 C 197.341 369.104,197.709 369.000,198.238 369.000 C 198.767 369.000,199.200 369.135,199.200 369.300 C 199.200 369.465,199.399 369.600,199.643 369.600 C 199.886 369.600,199.980 369.326,199.852 368.991 C 199.661 368.492,199.763 368.459,200.415 368.808 C 201.013 369.128,201.262 369.105,201.411 368.717 C 201.554 368.345,202.593 368.209,205.105 368.231 C 207.439 368.252,208.807 368.089,209.222 367.740 C 209.626 367.401,211.206 367.194,213.735 367.149 C 215.875 367.112,217.738 366.900,217.875 366.679 C 218.012 366.458,217.928 366.397,217.689 366.545 C 217.451 366.692,217.169 366.674,217.064 366.504 C 216.959 366.334,217.887 366.142,219.125 366.078 C 220.364 366.013,221.515 365.744,221.683 365.480 C 221.850 365.216,221.991 365.157,221.994 365.349 C 221.997 365.541,222.284 365.462,222.630 365.175 C 223.153 364.741,223.323 364.750,223.624 365.226 C 223.877 365.624,223.990 365.647,223.994 365.300 C 223.998 364.989,224.574 364.800,225.520 364.800 C 226.356 364.800,227.282 364.575,227.579 364.300 C 228.017 363.894,228.056 363.912,227.790 364.400 C 227.556 364.829,227.694 364.798,228.271 364.293 C 228.864 363.774,229.468 363.647,230.536 363.817 C 231.822 364.021,231.961 363.963,231.722 363.324 C 231.489 362.703,231.541 362.674,232.086 363.117 C 232.476 363.434,232.776 363.477,232.861 363.229 C 232.937 363.007,233.630 362.788,234.400 362.743 C 236.000 362.650,237.312 362.106,237.032 361.652 C 236.928 361.483,237.397 361.426,238.075 361.526 C 238.938 361.652,239.418 361.511,239.674 361.053 C 239.938 360.581,240.616 360.398,242.120 360.394 C 243.610 360.389,244.030 360.278,243.600 360.000 C 242.975 359.596,243.289 359.455,244.524 359.583 C 244.922 359.625,245.542 359.420,245.901 359.129 C 246.374 358.745,246.471 358.737,246.253 359.100 C 246.088 359.375,246.143 359.600,246.376 359.600 C 246.753 359.600,246.955 359.079,246.863 358.346 C 246.845 358.206,247.444 358.133,248.194 358.183 C 248.944 358.233,249.546 358.168,249.532 358.037 C 249.433 357.150,249.764 356.958,251.200 357.072 C 252.137 357.146,252.800 357.023,252.800 356.776 C 252.800 356.543,252.620 356.464,252.400 356.600 C 252.180 356.736,252.000 356.657,252.000 356.424 C 252.000 356.191,252.546 356.000,253.213 356.000 C 253.921 356.000,254.521 355.751,254.655 355.400 C 254.795 355.036,255.400 354.800,256.194 354.800 C 256.913 354.800,257.717 354.541,257.980 354.224 C 258.247 353.903,258.755 353.759,259.129 353.899 C 259.714 354.117,259.729 354.063,259.251 353.475 C 258.695 352.792,258.856 352.654,260.072 352.774 C 260.441 352.811,261.122 352.517,261.585 352.120 C 262.047 351.724,262.465 351.487,262.513 351.594 C 262.561 351.701,263.247 351.389,264.039 350.900 C 264.830 350.411,265.624 350.143,265.803 350.305 C 265.982 350.467,265.999 350.375,265.841 350.100 C 265.676 349.814,265.777 349.574,266.076 349.539 C 266.364 349.506,266.780 349.436,267.000 349.385 C 267.220 349.334,267.670 349.269,268.000 349.240 C 268.533 349.194,268.533 349.145,268.000 348.800 C 267.359 348.386,267.855 348.203,269.140 348.379 C 269.437 348.420,269.569 348.274,269.434 348.054 C 269.298 347.835,269.370 347.542,269.593 347.404 C 269.817 347.266,270.000 347.373,270.000 347.643 C 270.000 347.913,270.104 348.030,270.230 347.903 C 270.426 347.707,270.526 347.360,270.776 346.000 C 270.796 345.890,270.987 346.070,271.200 346.400 C 271.533 346.915,271.589 346.903,271.594 346.313 C 271.598 345.896,271.816 345.708,272.148 345.836 C 272.450 345.951,272.804 345.766,272.936 345.423 C 273.067 345.080,273.541 344.800,273.987 344.800 C 274.434 344.800,274.800 344.620,274.800 344.400 C 274.800 344.180,275.070 344.000,275.400 344.000 C 275.730 344.000,276.000 343.646,276.000 343.213 C 276.000 342.642,276.184 342.496,276.666 342.681 C 277.115 342.853,277.237 342.783,277.040 342.465 C 276.738 341.976,278.330 341.135,278.910 341.477 C 279.080 341.577,279.170 341.479,279.110 341.258 C 279.049 341.037,279.360 340.560,279.800 340.199 C 280.240 339.837,280.347 339.672,280.038 339.832 C 279.656 340.030,279.573 339.967,279.779 339.635 C 279.945 339.366,280.323 339.239,280.620 339.352 C 280.928 339.470,281.269 339.212,281.416 338.751 C 281.569 338.268,281.900 338.029,282.236 338.159 C 282.602 338.299,282.800 338.102,282.800 337.600 C 282.800 337.144,283.006 336.904,283.300 337.017 C 283.579 337.124,284.032 336.686,284.324 336.028 C 284.611 335.378,285.376 334.612,286.023 334.326 C 286.702 334.025,287.200 333.497,287.200 333.079 C 287.200 332.679,287.380 332.464,287.600 332.600 C 287.956 332.820,288.170 332.307,288.052 331.514 C 288.029 331.357,288.285 331.334,288.621 331.463 C 288.958 331.593,289.204 331.541,289.169 331.349 C 289.026 330.565,289.222 329.966,289.555 330.172 C 290.133 330.530,290.837 329.363,290.532 328.551 C 290.282 327.884,290.327 327.863,290.934 328.357 C 291.539 328.849,291.586 328.829,291.340 328.187 C 291.116 327.605,291.205 327.516,291.787 327.740 C 292.429 327.986,292.449 327.939,291.957 327.334 C 291.465 326.730,291.484 326.682,292.121 326.921 C 292.517 327.069,292.742 327.029,292.620 326.832 C 292.498 326.634,292.938 326.018,293.599 325.462 C 294.260 324.906,294.800 324.091,294.800 323.649 C 294.800 322.699,295.445 322.180,295.734 322.898 C 295.846 323.174,295.951 322.911,295.968 322.313 C 295.992 321.517,296.161 321.287,296.600 321.455 C 297.016 321.615,297.200 321.428,297.200 320.843 C 297.200 320.379,297.425 320.045,297.700 320.100 C 297.990 320.158,298.180 319.827,298.153 319.310 C 298.124 318.765,298.395 318.328,298.853 318.183 C 299.313 318.037,299.600 317.572,299.600 316.973 C 299.600 316.438,299.780 316.000,300.000 316.000 C 300.220 316.000,300.400 315.550,300.400 315.000 C 300.400 314.378,300.627 314.000,301.000 314.000 C 301.395 314.000,301.600 313.605,301.600 312.843 C 301.600 312.206,301.842 311.593,302.138 311.479 C 302.434 311.366,302.693 310.677,302.714 309.949 C 302.735 309.216,303.047 308.409,303.412 308.142 C 303.847 307.824,303.982 307.375,303.809 306.829 C 303.631 306.269,303.722 306.000,304.088 306.000 C 304.560 306.000,304.780 305.178,304.907 302.938 C 304.922 302.684,305.172 302.568,305.464 302.680 C 305.852 302.829,305.955 302.545,305.847 301.620 C 305.754 300.824,305.940 300.117,306.350 299.707 C 306.720 299.337,307.013 298.365,307.030 297.452 C 307.046 296.569,307.271 295.776,307.530 295.690 C 307.788 295.604,308.000 295.358,308.000 295.143 C 308.000 294.928,307.820 294.864,307.600 295.000 C 307.380 295.136,307.200 295.072,307.200 294.857 C 307.200 294.642,307.418 294.394,307.685 294.305 C 307.951 294.216,308.188 293.706,308.211 293.172 C 308.335 290.276,308.410 289.959,308.900 290.253 C 309.240 290.457,309.224 290.337,308.851 289.877 C 308.362 289.274,308.486 289.043,309.249 289.136 C 309.385 289.152,309.466 287.553,309.428 285.583 C 309.381 283.172,309.504 282.000,309.804 282.000 C 310.543 282.000,310.626 257.886,309.890 257.275 C 309.493 256.946,309.360 256.121,309.444 254.521 C 309.510 253.265,309.370 252.004,309.133 251.719 C 308.815 251.337,308.847 251.198,309.251 251.194 C 309.711 251.189,309.713 251.132,309.257 250.844 C 308.879 250.604,308.849 250.417,309.157 250.226 C 309.845 249.801,309.678 249.084,308.955 249.362 C 308.494 249.539,308.377 249.437,308.543 249.005 C 308.671 248.672,308.646 248.400,308.487 248.400 C 308.329 248.400,308.223 247.137,308.250 245.593 C 308.292 243.252,308.209 242.861,307.750 243.241 C 307.171 243.722,306.960 242.481,307.173 239.845 C 307.246 238.935,307.131 238.741,306.633 238.932 C 306.112 239.132,305.991 238.825,305.950 237.187 C 305.886 234.630,305.869 234.530,305.436 234.133 C 305.225 233.940,305.191 234.008,305.357 234.295 C 305.536 234.607,305.448 234.717,305.118 234.590 C 304.760 234.453,304.641 233.806,304.742 232.544 C 304.844 231.262,304.753 230.782,304.444 230.973 C 304.023 231.233,303.934 231.074,303.840 229.900 C 303.818 229.625,303.551 229.205,303.246 228.966 C 302.890 228.687,302.709 227.800,302.739 226.485 C 302.764 225.359,302.634 224.345,302.450 224.231 C 302.266 224.117,302.202 224.514,302.308 225.112 C 302.451 225.919,302.382 226.089,302.041 225.770 C 301.788 225.534,301.554 224.637,301.522 223.776 C 301.490 222.915,301.389 222.433,301.298 222.705 C 300.983 223.651,300.400 223.193,300.400 222.000 C 300.400 221.136,300.204 220.791,299.700 220.768 C 299.315 220.751,299.215 220.649,299.478 220.543 C 299.740 220.436,299.856 220.091,299.736 219.776 C 299.615 219.462,299.368 219.296,299.187 219.408 C 298.837 219.625,298.217 218.190,298.050 216.776 C 298.023 216.543,297.850 216.445,297.667 216.559 C 297.483 216.672,297.303 216.503,297.267 216.182 C 297.230 215.862,297.170 215.330,297.133 215.000 C 297.097 214.670,296.816 214.400,296.510 214.400 C 296.191 214.400,296.075 214.597,296.238 214.862 C 296.416 215.150,296.348 215.215,296.055 215.034 C 295.798 214.875,295.707 214.550,295.855 214.312 C 296.002 214.074,295.815 213.654,295.439 213.379 C 295.064 213.105,294.725 212.457,294.687 211.940 C 294.649 211.423,294.164 210.573,293.609 210.052 C 293.054 209.530,292.649 208.932,292.710 208.722 C 292.770 208.512,292.646 208.448,292.434 208.579 C 291.890 208.915,291.270 207.649,291.487 206.643 C 291.611 206.071,291.554 205.961,291.311 206.301 C 290.852 206.942,289.200 204.822,289.200 203.593 C 289.200 203.131,289.020 202.864,288.800 203.000 C 288.433 203.227,288.222 202.680,288.363 201.870 C 288.394 201.689,288.232 201.656,288.003 201.798 C 287.774 201.939,287.691 202.223,287.817 202.428 C 287.944 202.632,287.849 202.800,287.606 202.800 C 287.363 202.800,287.194 202.575,287.230 202.300 C 287.367 201.247,287.179 200.800,286.600 200.800 C 286.270 200.800,286.000 200.530,286.000 200.200 C 286.000 199.870,285.759 199.600,285.464 199.600 C 285.170 199.600,284.730 199.166,284.489 198.635 C 284.247 198.104,283.703 197.560,283.280 197.426 C 282.759 197.260,282.546 196.875,282.617 196.227 C 282.690 195.557,282.483 195.210,281.921 195.063 C 281.415 194.931,281.231 194.674,281.422 194.365 C 281.616 194.050,281.557 193.979,281.255 194.166 C 280.998 194.325,280.891 194.623,281.017 194.828 C 281.144 195.032,281.057 195.200,280.824 195.200 C 280.591 195.200,280.400 194.930,280.400 194.600 C 280.400 194.270,280.209 194.000,279.976 194.000 C 279.743 194.000,279.664 193.820,279.800 193.601 C 279.935 193.381,279.785 192.828,279.466 192.373 C 279.043 191.769,278.828 191.687,278.674 192.072 C 278.558 192.362,278.446 192.150,278.425 191.600 C 278.396 190.825,278.304 190.732,278.017 191.186 C 277.719 191.657,277.564 191.559,277.233 190.686 C 277.006 190.089,276.715 189.600,276.586 189.600 C 276.458 189.600,276.489 189.825,276.656 190.100 C 276.822 190.375,276.306 190.060,275.508 189.400 C 274.710 188.740,274.045 187.975,274.029 187.700 C 274.013 187.425,273.634 187.200,273.187 187.200 C 272.741 187.200,272.282 186.957,272.168 186.661 C 272.054 186.364,271.404 185.710,270.723 185.207 C 270.043 184.703,269.615 184.541,269.773 184.846 C 269.930 185.151,269.776 185.051,269.430 184.624 C 269.083 184.196,268.789 184.016,268.775 184.224 C 268.761 184.431,268.582 184.183,268.378 183.674 C 268.174 183.165,267.844 182.849,267.645 182.972 C 267.446 183.095,267.165 182.886,267.020 182.509 C 266.795 181.921,266.704 181.907,266.385 182.411 C 266.072 182.905,266.011 182.887,266.006 182.300 C 266.003 181.915,265.749 181.600,265.443 181.600 C 265.136 181.600,264.782 181.330,264.655 181.000 C 264.529 180.670,264.594 180.400,264.800 180.400 C 265.006 180.400,265.068 180.123,264.938 179.784 C 264.808 179.445,264.859 179.196,265.051 179.231 C 265.967 179.398,267.224 179.163,267.037 178.860 C 266.772 178.432,268.729 175.766,269.213 175.895 C 269.410 175.948,269.468 175.723,269.343 175.395 C 269.200 175.023,269.351 174.800,269.745 174.800 C 270.168 174.800,270.291 174.582,270.120 174.136 C 269.918 173.609,270.044 173.518,270.733 173.698 C 271.290 173.844,271.600 173.741,271.600 173.412 C 271.600 173.129,271.878 172.667,272.218 172.385 C 272.558 172.103,272.751 171.648,272.646 171.375 C 272.541 171.101,272.983 170.473,273.627 169.979 C 274.272 169.485,274.797 168.882,274.794 168.640 C 274.791 168.398,274.613 168.470,274.400 168.800 C 274.146 169.193,274.010 169.229,274.006 168.905 C 273.997 168.164,275.285 166.805,275.733 167.082 C 275.951 167.217,275.996 167.118,275.836 166.858 C 275.670 166.590,275.856 166.268,276.274 166.097 C 276.703 165.921,277.034 165.330,277.082 164.651 C 277.184 163.226,277.529 162.842,278.016 163.612 C 278.313 164.082,278.389 164.030,278.394 163.349 C 278.397 162.881,278.645 162.295,278.945 162.046 C 279.244 161.797,279.439 161.135,279.377 160.575 C 279.291 159.788,279.382 159.653,279.776 159.980 C 280.170 160.307,280.277 160.153,280.243 159.302 C 280.216 158.617,280.389 158.238,280.700 158.300 C 280.975 158.355,281.231 158.085,281.268 157.700 C 281.306 157.315,281.377 156.730,281.426 156.400 C 281.475 156.070,281.534 155.575,281.557 155.300 C 281.581 155.025,281.799 154.800,282.043 154.800 C 282.286 154.800,282.378 155.079,282.247 155.421 C 282.113 155.771,282.179 155.937,282.398 155.801 C 282.613 155.669,282.794 155.164,282.801 154.680 C 282.835 152.375,282.896 151.839,283.074 152.300 C 283.434 153.234,284.000 152.805,284.000 151.600 C 284.000 150.940,284.180 150.400,284.400 150.400 C 284.620 150.400,284.800 149.680,284.800 148.800 C 284.800 147.884,284.992 147.200,285.249 147.200 C 285.556 147.200,285.538 147.008,285.192 146.591 C 284.770 146.082,284.794 146.023,285.343 146.234 C 285.879 146.439,286.000 146.214,286.000 145.019 C 286.000 144.143,286.161 143.652,286.400 143.800 C 286.620 143.936,286.819 143.812,286.841 143.524 C 287.083 140.462,287.213 139.839,287.671 139.556 C 288.021 139.340,288.210 138.309,288.228 136.514 C 288.249 134.558,288.397 133.831,288.758 133.910 C 289.034 133.970,289.145 133.835,289.006 133.610 C 288.867 133.384,288.943 133.200,289.176 133.200 C 289.409 133.200,289.600 133.009,289.600 132.776 C 289.600 132.543,289.392 132.481,289.138 132.638 C 288.819 132.835,288.788 132.750,289.038 132.362 C 289.659 131.397,289.539 104.995,288.917 105.845 C 288.297 106.693,288.259 106.422,288.799 105.003 C 289.064 104.306,289.064 104.037,288.799 104.201 C 288.474 104.401,288.128 100.125,288.353 98.700 C 288.379 98.535,288.108 98.400,287.751 98.400 C 287.238 98.400,287.200 98.518,287.570 98.964 C 287.899 99.360,287.911 99.608,287.610 99.794 C 287.373 99.940,287.206 99.911,287.237 99.730 C 287.269 99.548,287.264 99.310,287.227 99.200 C 287.190 99.090,287.107 98.190,287.042 97.200 C 286.900 95.026,286.716 94.284,286.236 93.937 C 286.036 93.792,285.856 92.982,285.836 92.137 C 285.815 91.242,285.505 90.305,285.093 89.894 C 284.657 89.457,284.456 88.807,284.567 88.193 C 284.692 87.502,284.567 87.200,284.155 87.200 C 283.696 87.200,283.622 86.887,283.826 85.800 C 284.096 84.365,283.430 83.745,283.076 85.100 C 282.975 85.485,282.872 85.140,282.846 84.333 C 282.789 82.533,282.435 81.531,281.958 81.826 C 281.761 81.948,281.600 81.689,281.600 81.252 C 281.600 80.815,281.330 80.187,281.000 79.857 C 280.670 79.527,280.400 78.974,280.400 78.629 C 280.400 78.283,280.085 77.987,279.700 77.972 C 279.088 77.947,279.097 77.906,279.771 77.642 C 280.589 77.321,279.578 76.538,278.632 76.759 C 278.430 76.806,278.479 76.587,278.741 76.271 C 279.124 75.809,279.060 75.657,278.408 75.486 C 277.964 75.370,277.603 75.033,277.606 74.737 C 277.611 74.329,277.706 74.344,278.000 74.800 C 278.244 75.177,278.390 75.219,278.394 74.914 C 278.397 74.647,278.044 74.238,277.609 74.005 C 277.174 73.772,276.624 73.181,276.387 72.691 C 275.972 71.834,275.979 71.829,276.578 72.576 C 276.920 73.004,277.200 73.166,277.200 72.938 C 277.200 72.481,275.907 71.200,275.445 71.200 C 275.284 71.200,275.282 71.425,275.441 71.700 C 275.608 71.990,275.576 72.060,275.364 71.867 C 275.003 71.536,274.946 71.353,274.850 70.200 C 274.822 69.870,274.519 69.600,274.176 69.600 C 273.833 69.600,273.662 69.423,273.796 69.207 C 274.093 68.726,272.235 65.898,271.865 66.269 C 271.719 66.414,271.600 66.211,271.600 65.818 C 271.600 65.227,271.495 65.189,271.000 65.600 C 270.492 66.022,270.400 65.933,270.400 65.025 C 270.400 64.412,270.229 64.059,270.000 64.200 C 269.780 64.336,269.600 64.237,269.600 63.981 C 269.600 63.724,269.332 63.617,269.005 63.743 C 268.677 63.868,268.429 63.843,268.452 63.686 C 268.664 62.264,268.343 61.522,267.600 61.716 C 267.161 61.831,266.683 61.734,266.539 61.501 C 266.384 61.251,266.467 61.194,266.738 61.362 C 266.992 61.519,267.200 61.457,267.200 61.224 C 267.200 60.991,266.930 60.800,266.600 60.800 C 266.270 60.800,266.000 60.508,266.000 60.151 C 266.000 59.592,265.906 59.578,265.323 60.051 C 264.863 60.424,264.743 60.440,264.947 60.100 C 265.112 59.825,265.062 59.600,264.836 59.600 C 264.610 59.600,264.540 59.300,264.681 58.934 C 264.840 58.520,264.777 58.367,264.513 58.530 C 264.281 58.673,264.001 58.446,263.890 58.024 C 263.767 57.553,263.403 57.301,262.945 57.369 C 262.535 57.431,261.912 57.151,261.559 56.748 C 261.207 56.345,260.802 56.131,260.659 56.274 C 260.517 56.417,260.400 56.254,260.400 55.912 C 260.400 55.571,259.754 54.985,258.964 54.610 C 257.357 53.847,256.000 52.630,256.000 51.951 C 256.000 51.628,255.841 51.634,255.436 51.970 C 255.023 52.313,254.797 52.318,254.595 51.992 C 254.443 51.746,254.072 51.640,253.770 51.756 C 253.469 51.872,252.947 51.574,252.611 51.094 C 252.275 50.615,252.000 50.352,252.000 50.511 C 252.000 50.670,251.595 50.395,251.100 49.900 C 250.605 49.405,250.249 48.852,250.310 48.670 C 250.370 48.489,250.234 48.456,250.006 48.596 C 249.415 48.961,247.999 48.438,248.108 47.894 C 248.162 47.624,247.626 47.425,246.800 47.409 C 245.681 47.387,245.425 47.238,245.524 46.663 C 245.626 46.069,245.436 45.978,244.426 46.137 C 243.754 46.243,243.085 46.138,242.940 45.903 C 242.773 45.633,242.869 45.595,243.200 45.800 C 243.546 46.014,243.627 45.967,243.438 45.662 C 243.281 45.408,242.449 45.200,241.589 45.200 C 240.363 45.200,240.075 45.070,240.255 44.600 C 240.382 44.270,240.301 44.000,240.076 44.000 C 239.851 44.000,239.576 44.225,239.465 44.500 C 239.304 44.900,239.257 44.900,239.232 44.500 C 239.214 44.225,238.952 44.000,238.649 44.000 C 238.346 44.000,237.874 43.730,237.600 43.400 C 237.326 43.070,236.899 42.806,236.651 42.813 C 236.403 42.820,236.549 43.090,236.976 43.413 C 237.404 43.736,237.561 44.000,237.325 44.000 C 237.090 44.000,236.674 43.730,236.400 43.400 C 236.126 43.070,235.558 42.800,235.138 42.800 C 234.719 42.800,234.259 42.498,234.117 42.129 C 233.887 41.529,233.828 41.540,233.558 42.229 C 233.290 42.914,233.253 42.921,233.228 42.292 C 233.207 41.761,232.952 41.629,232.204 41.765 C 231.501 41.892,231.029 41.691,230.604 41.084 C 230.259 40.591,230.000 40.452,230.000 40.760 C 230.000 41.136,229.849 41.178,229.500 40.900 C 229.225 40.682,228.674 40.555,228.275 40.620 C 227.877 40.684,227.466 40.517,227.363 40.248 C 227.248 39.949,226.392 39.768,225.150 39.780 C 224.035 39.791,223.051 39.682,222.961 39.538 C 222.872 39.393,222.394 39.371,221.900 39.488 C 221.014 39.697,221.013 39.690,221.800 39.082 C 222.545 38.506,222.426 38.466,220.050 38.493 C 218.196 38.514,217.410 38.361,217.170 37.932 C 216.914 37.475,215.876 37.331,212.560 37.291 C 209.810 37.258,208.123 37.069,207.840 36.761 C 207.508 36.400,207.572 36.343,208.100 36.529 C 208.485 36.664,208.800 36.607,208.800 36.403 C 208.800 36.194,207.439 36.087,205.700 36.160 C 203.995 36.232,201.520 36.059,200.200 35.777 C 197.597 35.220,102.418 34.915,101.871 35.462 M179.200 83.156 C 179.200 83.352,179.830 83.427,180.600 83.323 C 181.370 83.220,182.000 83.309,182.000 83.522 C 182.000 83.759,184.649 83.888,188.814 83.855 C 192.965 83.821,195.740 83.956,195.914 84.200 C 196.071 84.420,197.901 84.642,199.980 84.692 C 202.871 84.763,203.839 84.927,204.099 85.391 C 204.355 85.849,205.120 85.986,207.239 85.954 C 209.298 85.923,210.228 86.082,210.751 86.556 C 211.143 86.910,212.034 87.200,212.731 87.200 C 213.635 87.200,214.000 87.387,214.000 87.849 C 214.000 88.408,214.094 88.422,214.677 87.949 C 215.254 87.480,215.303 87.483,215.011 87.968 C 214.749 88.403,214.838 88.471,215.391 88.259 C 216.240 87.933,217.701 88.312,217.410 88.783 C 217.300 88.962,217.567 89.203,218.005 89.317 C 218.538 89.457,218.709 89.372,218.524 89.063 C 218.349 88.771,218.478 88.787,218.873 89.107 C 219.217 89.386,219.790 89.502,220.146 89.365 C 220.543 89.213,220.888 89.365,221.039 89.758 C 221.187 90.143,221.750 90.400,222.443 90.400 C 223.205 90.400,223.600 90.605,223.600 91.000 C 223.600 91.375,223.979 91.600,224.613 91.600 C 225.169 91.600,225.734 91.885,225.868 92.232 C 226.013 92.612,226.408 92.787,226.855 92.670 C 227.410 92.524,227.602 92.694,227.606 93.337 C 227.611 94.041,227.684 94.089,228.000 93.600 C 228.213 93.270,228.391 93.203,228.394 93.451 C 228.397 93.700,228.928 94.122,229.573 94.389 C 230.268 94.677,230.664 95.089,230.545 95.399 C 230.417 95.732,230.778 96.020,231.531 96.185 C 232.284 96.350,232.807 96.767,232.959 97.323 C 233.161 98.057,233.264 98.102,233.594 97.600 C 233.907 97.123,233.989 97.207,233.994 98.011 C 234.000 98.961,234.906 100.114,235.798 100.307 C 236.018 100.355,236.198 100.799,236.198 101.295 C 236.200 102.208,237.184 103.585,237.658 103.339 C 237.800 103.265,238.023 103.483,238.154 103.823 C 238.284 104.163,238.225 104.339,238.023 104.214 C 237.821 104.089,237.542 104.170,237.404 104.393 C 237.266 104.617,237.389 104.800,237.679 104.800 C 238.237 104.800,239.331 106.861,239.484 108.200 C 239.534 108.640,239.611 109.838,239.655 110.862 C 239.704 112.005,239.902 112.659,240.167 112.557 C 240.646 112.373,240.617 124.123,240.137 125.200 C 239.807 125.938,239.714 126.675,239.650 129.049 C 239.609 130.555,239.500 130.815,239.059 130.449 C 238.619 130.084,238.530 130.263,238.587 131.400 C 238.644 132.544,238.514 132.800,237.879 132.800 C 237.270 132.800,237.199 132.917,237.553 133.343 C 237.901 133.762,237.787 134.106,237.058 134.843 C 236.538 135.370,236.163 136.126,236.225 136.525 C 236.286 136.923,236.081 137.348,235.768 137.468 C 234.945 137.783,235.068 138.418,235.900 138.145 C 236.285 138.018,236.015 138.291,235.300 138.752 C 234.468 139.287,233.998 139.914,233.994 140.494 C 233.989 141.155,233.895 141.253,233.644 140.857 C 233.404 140.479,233.217 140.449,233.026 140.757 C 232.876 141.001,232.851 141.360,232.972 141.555 C 233.093 141.750,232.894 141.885,232.531 141.855 C 232.102 141.819,231.748 142.256,231.524 143.100 C 231.333 143.815,231.002 144.400,230.789 144.400 C 230.575 144.400,230.400 144.681,230.400 145.024 C 230.400 145.367,230.259 145.560,230.086 145.453 C 229.914 145.347,229.419 145.694,228.986 146.226 C 227.540 148.003,226.400 149.243,226.400 149.039 C 226.400 148.927,225.908 149.323,225.306 149.918 C 224.705 150.513,224.255 151.135,224.306 151.300 C 224.388 151.561,223.517 151.762,222.741 151.661 C 222.599 151.643,222.585 152.026,222.710 152.514 C 222.909 153.283,222.855 153.332,222.305 152.881 C 221.594 152.298,220.953 152.876,221.438 153.662 C 221.619 153.954,221.548 154.015,221.244 153.827 C 220.683 153.480,219.507 154.326,219.828 154.845 C 219.949 155.040,219.713 155.200,219.304 155.200 C 218.895 155.200,218.368 155.392,218.132 155.628 C 217.897 155.863,217.366 156.112,216.952 156.181 C 216.539 156.250,216.245 156.507,216.300 156.753 C 216.355 156.999,216.209 157.200,215.976 157.200 C 215.743 157.200,215.648 157.354,215.764 157.542 C 216.071 158.038,214.127 158.824,213.339 158.521 C 212.921 158.361,212.767 158.423,212.930 158.687 C 213.074 158.919,212.923 159.332,212.596 159.604 C 212.268 159.876,212.000 159.952,212.000 159.773 C 212.000 159.594,211.757 159.779,211.461 160.185 C 211.164 160.590,210.723 160.800,210.481 160.650 C 210.238 160.500,209.853 160.727,209.625 161.154 C 209.396 161.581,208.892 161.883,208.505 161.825 C 208.117 161.767,207.570 162.045,207.289 162.443 C 207.008 162.841,206.558 163.114,206.289 163.049 C 206.020 162.984,205.935 163.007,206.100 163.099 C 206.905 163.549,206.224 164.003,204.700 164.032 C 203.765 164.049,203.225 164.154,203.500 164.265 C 203.775 164.376,204.000 164.640,204.000 164.851 C 204.000 165.062,203.775 165.206,203.500 165.170 C 201.995 164.975,200.606 165.259,201.400 165.600 C 202.194 165.941,201.691 166.184,200.506 166.031 C 200.203 165.992,200.111 166.223,200.267 166.630 C 200.486 167.200,200.399 167.228,199.655 166.829 C 198.956 166.455,198.744 166.480,198.561 166.957 C 198.429 167.303,198.070 167.448,197.701 167.307 C 197.234 167.127,197.158 167.212,197.411 167.632 C 197.696 168.104,197.647 168.113,197.123 167.690 C 196.605 167.270,196.452 167.288,196.259 167.790 C 196.130 168.125,195.614 168.421,195.113 168.446 C 194.427 168.481,194.376 168.539,194.905 168.677 C 196.083 168.984,195.249 169.600,193.656 169.600 C 192.833 169.600,191.976 169.784,191.751 170.009 C 191.525 170.235,190.994 170.487,190.571 170.571 C 188.891 170.904,188.589 171.015,188.315 171.400 C 188.158 171.620,187.843 171.822,187.615 171.850 C 187.387 171.877,187.009 171.923,186.776 171.950 C 186.543 171.978,186.481 172.208,186.638 172.462 C 186.796 172.718,186.750 172.816,186.533 172.682 C 186.318 172.550,185.655 172.694,185.058 173.004 C 184.462 173.313,184.080 173.394,184.210 173.183 C 184.341 172.972,184.150 172.800,183.786 172.800 C 183.423 172.800,183.029 173.167,182.912 173.616 C 182.794 174.065,182.498 174.366,182.253 174.284 C 182.008 174.203,181.568 174.375,181.275 174.668 C 180.982 174.961,180.141 175.200,179.405 175.200 C 178.669 175.200,177.994 175.418,177.905 175.684 C 177.817 175.950,177.273 176.188,176.698 176.213 C 176.123 176.238,175.336 176.516,174.949 176.829 C 174.563 177.143,174.374 177.187,174.530 176.928 C 174.686 176.668,174.630 176.342,174.407 176.204 C 174.183 176.066,174.000 176.233,174.000 176.576 C 174.000 176.933,173.658 177.200,173.200 177.200 C 172.008 177.200,171.848 177.263,171.270 177.960 C 170.979 178.312,170.855 178.375,170.994 178.100 C 171.133 177.825,171.057 177.600,170.824 177.600 C 170.591 177.600,170.400 177.780,170.400 178.000 C 170.400 178.220,170.062 178.400,169.649 178.400 C 169.236 178.400,168.674 178.670,168.400 179.000 C 168.126 179.330,167.710 179.600,167.475 179.600 C 167.239 179.600,167.355 179.375,167.731 179.100 C 168.347 178.649,168.319 178.600,167.446 178.600 C 166.913 178.600,166.552 178.723,166.645 178.872 C 166.936 179.343,165.847 179.775,164.680 179.653 C 164.064 179.588,163.281 179.767,162.940 180.050 C 162.599 180.333,161.798 180.524,161.160 180.476 C 160.522 180.427,160.000 180.570,160.000 180.794 C 160.000 181.017,159.809 181.200,159.576 181.200 C 159.343 181.200,159.264 181.020,159.400 180.800 C 159.536 180.580,159.466 180.400,159.243 180.400 C 159.021 180.400,158.696 180.652,158.520 180.961 C 158.197 181.526,157.355 181.731,155.700 181.646 L 154.800 181.600 154.800 132.800 L 154.800 84.000 166.576 84.000 C 173.878 84.000,178.445 83.850,178.596 83.606 C 178.754 83.351,174.549 83.172,166.720 83.100 L 154.600 82.988 166.900 82.894 C 173.891 82.841,179.200 82.954,179.200 83.156 M222.500 212.888 C 222.947 212.794,223.200 212.984,223.200 213.413 C 223.200 213.840,223.415 214.003,223.787 213.860 C 224.110 213.736,224.498 213.835,224.649 214.079 C 224.827 214.367,224.739 214.410,224.400 214.200 C 224.051 213.984,223.973 214.033,224.166 214.345 C 224.325 214.602,224.619 214.712,224.819 214.588 C 225.406 214.226,226.856 215.183,226.534 215.720 C 226.376 215.984,226.586 215.930,227.000 215.600 C 227.414 215.270,227.631 215.205,227.481 215.455 C 227.323 215.719,227.558 216.000,228.045 216.128 C 228.504 216.248,228.785 216.501,228.668 216.690 C 228.551 216.879,228.832 217.062,229.292 217.097 C 229.752 217.132,230.259 217.372,230.419 217.631 C 230.583 217.895,230.933 217.965,231.217 217.789 C 231.557 217.580,231.624 217.637,231.422 217.965 C 231.237 218.264,231.329 218.425,231.660 218.379 C 232.621 218.247,233.818 218.456,233.300 218.665 C 232.359 219.045,232.799 219.502,234.006 219.399 C 234.670 219.343,235.310 219.455,235.430 219.648 C 235.549 219.842,235.412 220.003,235.124 220.006 C 234.836 220.009,235.050 220.237,235.600 220.513 C 236.150 220.789,236.780 221.425,237.000 221.926 C 237.255 222.508,237.649 222.774,238.086 222.660 C 238.516 222.549,238.865 222.774,239.020 223.263 C 239.156 223.693,239.466 223.978,239.709 223.897 C 240.202 223.733,241.856 225.231,241.700 225.700 C 241.645 225.865,241.960 226.000,242.400 226.000 C 242.840 226.000,243.155 226.217,243.100 226.482 C 243.045 226.747,243.270 226.980,243.600 227.000 C 243.930 227.020,244.155 227.253,244.100 227.518 C 244.007 227.967,244.529 228.181,245.351 228.030 C 245.544 227.995,245.606 228.334,245.489 228.783 C 245.338 229.360,245.469 229.604,245.937 229.613 C 246.754 229.628,248.405 230.800,247.610 230.800 C 246.955 230.800,247.467 231.396,248.133 231.410 C 248.390 231.415,248.575 231.730,248.544 232.110 C 248.480 232.906,249.036 233.040,249.335 232.300 C 249.517 231.848,249.765 232.957,249.647 233.700 C 249.621 233.865,249.825 233.955,250.100 233.900 C 250.375 233.845,250.555 234.025,250.500 234.300 C 250.445 234.575,250.599 234.800,250.843 234.800 C 251.086 234.800,251.186 235.061,251.063 235.380 C 250.918 235.757,251.033 235.885,251.391 235.748 C 251.792 235.594,251.886 235.790,251.736 236.468 C 251.616 237.013,251.669 237.218,251.865 236.961 C 252.088 236.669,252.531 236.936,253.192 237.761 C 253.738 238.442,253.873 238.753,253.492 238.451 C 252.385 237.573,252.692 238.231,254.000 239.538 C 254.712 240.251,255.200 241.157,255.200 241.769 C 255.200 242.381,255.403 242.759,255.700 242.700 C 255.975 242.645,256.155 242.825,256.100 243.100 C 256.045 243.375,256.259 243.600,256.576 243.600 C 256.893 243.600,257.276 243.799,257.426 244.043 C 257.612 244.343,257.395 244.401,256.750 244.222 C 255.819 243.964,255.816 243.972,256.600 244.597 C 257.103 244.998,257.352 245.599,257.271 246.217 C 257.182 246.899,257.336 247.200,257.771 247.200 C 258.162 247.200,258.419 247.579,258.450 248.200 C 258.526 249.725,258.571 249.907,258.964 250.267 C 259.180 250.464,259.195 250.371,259.002 250.038 C 258.783 249.660,258.828 249.570,259.138 249.762 C 259.392 249.919,259.600 250.722,259.600 251.547 C 259.600 252.372,259.851 253.390,260.158 253.810 C 260.465 254.230,260.639 254.998,260.544 255.518 C 260.420 256.202,260.515 256.384,260.886 256.173 C 261.298 255.940,261.301 255.989,260.900 256.421 C 260.243 257.129,260.260 257.739,260.930 257.482 C 261.316 257.334,261.488 257.785,261.560 259.139 C 261.747 262.651,261.801 263.001,262.200 263.294 C 262.448 263.476,262.411 263.590,262.103 263.594 C 261.775 263.598,261.628 264.178,261.672 265.292 C 261.709 266.223,261.812 266.763,261.903 266.492 C 262.294 265.319,262.796 266.156,262.747 267.900 C 262.697 269.729,262.684 269.748,262.420 268.400 L 262.146 267.000 261.833 268.864 C 261.636 270.036,261.679 271.001,261.948 271.464 C 262.337 272.133,262.381 272.109,262.435 271.200 C 262.490 270.283,262.517 270.300,262.758 271.400 C 263.041 272.693,262.434 273.874,261.906 273.056 C 261.723 272.771,261.610 272.758,261.606 273.020 C 261.603 273.251,261.825 273.682,262.100 273.979 C 262.375 274.275,262.412 274.413,262.183 274.286 C 261.911 274.136,261.757 275.093,261.740 277.034 C 261.719 279.312,261.544 280.199,260.995 280.806 C 260.443 281.415,260.407 281.601,260.838 281.606 C 261.258 281.611,261.277 281.691,260.911 281.923 C 260.624 282.105,260.507 282.700,260.628 283.366 C 260.785 284.231,260.699 284.447,260.266 284.281 C 259.955 284.161,259.705 284.274,259.713 284.532 C 259.777 286.784,259.561 287.670,259.000 287.455 C 258.550 287.283,258.400 287.521,258.400 288.413 C 258.400 289.138,258.192 289.600,257.864 289.600 C 257.521 289.600,257.354 290.028,257.400 290.794 C 257.449 291.618,257.255 292.055,256.775 292.208 C 256.393 292.329,255.957 292.916,255.808 293.512 C 255.474 294.840,254.830 295.665,254.355 295.372 C 254.160 295.251,254.000 295.463,254.000 295.843 C 254.000 296.223,253.899 296.432,253.775 296.309 C 253.505 296.038,251.597 297.742,251.606 298.246 C 251.609 298.441,251.769 298.353,251.960 298.051 C 252.151 297.749,252.547 297.582,252.839 297.680 C 253.148 297.783,252.831 298.096,252.086 298.426 C 251.330 298.761,250.800 299.290,250.800 299.711 C 250.800 300.415,249.295 301.280,248.690 300.923 C 248.520 300.823,248.425 300.889,248.480 301.070 C 248.535 301.252,248.093 301.918,247.498 302.550 C 246.902 303.183,246.527 303.881,246.663 304.102 C 246.800 304.323,246.673 304.424,246.381 304.327 C 246.089 304.230,245.510 304.490,245.094 304.906 C 244.678 305.322,244.097 305.569,243.802 305.456 C 243.507 305.343,243.160 305.528,243.030 305.867 C 242.900 306.206,242.557 306.392,242.268 306.281 C 241.979 306.171,241.529 306.421,241.268 306.839 C 241.008 307.257,240.579 307.554,240.315 307.499 C 240.052 307.445,239.828 307.667,239.818 307.992 C 239.806 308.398,239.391 308.573,238.500 308.546 C 237.649 308.521,237.200 308.697,237.200 309.054 C 237.200 309.370,236.778 309.600,236.200 309.600 C 235.623 309.600,235.200 309.830,235.200 310.145 C 235.200 310.489,234.831 310.649,234.198 310.580 C 233.647 310.520,233.294 310.629,233.414 310.823 C 233.639 311.187,232.018 311.736,230.600 311.777 C 230.160 311.790,229.842 312.017,229.894 312.283 C 229.946 312.550,229.363 312.883,228.590 313.028 C 227.821 313.173,227.093 313.450,226.972 313.645 C 226.851 313.840,226.397 314.000,225.962 314.000 C 225.528 314.000,224.773 314.240,224.286 314.534 C 223.799 314.828,222.680 315.110,221.800 315.161 C 220.920 315.212,219.995 315.519,219.744 315.843 C 219.454 316.218,218.883 316.358,218.170 316.229 C 217.554 316.117,216.814 316.222,216.525 316.462 C 216.145 316.778,216.000 316.774,216.000 316.449 C 216.000 316.202,215.801 316.000,215.557 316.000 C 215.314 316.000,215.218 316.270,215.345 316.600 C 215.578 317.208,214.415 317.388,210.892 317.288 C 210.173 317.268,209.681 317.407,209.799 317.598 C 210.181 318.217,209.289 318.428,206.015 318.492 C 203.669 318.539,202.800 318.697,202.800 319.078 C 202.800 319.472,201.833 319.600,198.849 319.600 C 195.893 319.600,194.777 319.745,194.419 320.178 C 194.037 320.637,193.736 320.663,192.941 320.300 C 192.305 320.011,191.844 319.987,191.671 320.234 C 191.520 320.451,189.627 320.591,187.400 320.550 C 185.200 320.510,176.964 320.460,169.098 320.439 L 154.796 320.400 154.898 276.500 L 155.000 232.600 156.666 232.600 C 157.992 232.600,158.243 232.493,157.898 232.077 C 157.660 231.790,157.630 231.586,157.832 231.625 C 159.170 231.879,162.134 231.545,161.600 231.200 C 161.256 230.978,161.199 230.810,161.467 230.806 C 161.724 230.803,162.264 230.693,162.667 230.562 C 163.277 230.365,163.299 230.397,162.800 230.756 C 162.470 230.994,162.389 231.191,162.620 231.194 C 162.851 231.197,163.211 231.034,163.420 230.831 C 163.629 230.628,164.700 230.411,165.800 230.349 C 166.900 230.287,168.221 230.021,168.735 229.757 C 169.250 229.494,170.115 229.327,170.658 229.387 C 171.351 229.463,171.583 229.334,171.437 228.953 C 171.227 228.406,171.478 228.355,174.318 228.366 C 175.110 228.369,175.726 228.137,175.861 227.785 C 175.991 227.448,176.604 227.200,177.311 227.200 C 177.985 227.200,178.874 226.895,179.286 226.522 C 179.989 225.886,180.019 225.886,179.774 226.522 C 179.627 226.908,179.705 227.200,179.957 227.200 C 180.201 227.200,180.400 226.930,180.400 226.600 C 180.400 226.030,181.502 225.795,183.309 225.981 C 183.709 226.022,183.970 225.824,183.909 225.527 C 183.842 225.205,184.267 224.947,184.999 224.864 C 185.658 224.789,186.300 224.562,186.426 224.359 C 186.551 224.155,187.534 223.900,188.610 223.791 C 189.686 223.682,190.745 223.415,190.963 223.197 C 191.181 222.979,191.765 222.800,192.260 222.800 C 192.755 222.800,193.313 222.528,193.499 222.195 C 193.705 221.827,194.600 221.525,195.776 221.425 C 196.842 221.335,197.824 221.088,197.957 220.876 C 198.320 220.298,200.874 219.359,201.891 219.429 C 202.444 219.467,202.871 219.208,203.017 218.745 C 203.148 218.335,203.432 218.000,203.651 218.000 C 203.869 218.000,203.937 218.178,203.803 218.395 C 203.663 218.622,203.823 218.689,204.179 218.553 C 204.521 218.422,204.800 218.134,204.800 217.914 C 204.800 217.694,205.079 217.622,205.421 217.753 C 205.777 217.889,205.937 217.822,205.797 217.595 C 205.651 217.360,206.208 217.200,207.176 217.200 C 208.748 217.200,209.323 216.707,208.300 216.237 C 208.025 216.111,208.205 216.108,208.700 216.231 C 209.195 216.353,209.600 216.272,209.600 216.050 C 209.600 215.828,209.960 215.715,210.400 215.800 C 210.901 215.897,211.200 215.739,211.200 215.377 C 211.200 215.003,211.621 214.800,212.400 214.800 C 213.260 214.800,213.600 214.608,213.600 214.124 C 213.600 213.532,213.676 213.545,214.206 214.224 C 214.539 214.651,214.764 214.756,214.706 214.459 C 214.640 214.124,215.055 213.864,215.794 213.776 C 216.451 213.698,217.051 213.447,217.128 213.217 C 217.204 212.988,217.547 212.800,217.889 212.800 C 218.232 212.800,218.770 212.485,219.086 212.100 C 219.401 211.715,219.553 211.613,219.423 211.872 C 219.293 212.132,219.370 212.458,219.593 212.596 C 219.824 212.738,220.000 212.447,220.000 211.924 L 220.001 211.000 220.900 212.018 C 221.398 212.581,222.112 212.970,222.500 212.888 M120.670 370.300 C 130.608 370.359,146.988 370.359,157.070 370.300 C 167.151 370.240,159.020 370.192,139.000 370.192 C 118.980 370.192,110.731 370.240,120.670 370.300 " stroke="none" fill="#6cbc44" fill-rule="evenodd"></path><path id="path1" d="M198.400 35.353 C 198.400 35.438,198.850 35.593,199.400 35.698 C 199.950 35.803,200.400 35.734,200.400 35.545 C 200.400 35.355,199.950 35.200,199.400 35.200 C 198.850 35.200,198.400 35.269,198.400 35.353 M208.800 36.373 C 208.800 36.594,208.485 36.664,208.100 36.529 C 207.563 36.340,207.505 36.396,207.851 36.772 C 208.099 37.042,208.819 37.202,209.451 37.128 C 210.596 36.995,210.597 36.993,209.700 36.483 C 209.171 36.182,208.800 36.137,208.800 36.373 M251.449 50.184 C 251.586 50.542,251.795 50.738,251.914 50.620 C 252.032 50.502,252.382 50.767,252.691 51.209 C 253.001 51.652,253.422 51.910,253.627 51.783 C 254.445 51.278,254.119 50.955,251.500 49.679 C 251.335 49.599,251.312 49.826,251.449 50.184 M166.720 83.100 C 174.549 83.172,178.754 83.351,178.596 83.606 C 178.450 83.843,179.081 84.000,180.176 84.000 C 181.217 84.000,182.000 83.814,182.000 83.567 C 182.000 83.304,181.453 83.208,180.600 83.323 C 179.830 83.427,179.200 83.352,179.200 83.156 C 179.200 82.954,173.891 82.841,166.900 82.894 L 154.600 82.988 166.720 83.100 M209.632 86.700 C 209.652 87.145,209.739 87.212,209.870 86.883 C 210.040 86.461,210.199 86.461,210.739 86.883 C 211.330 87.345,211.342 87.325,210.851 86.700 C 210.549 86.315,210.144 86.000,209.951 86.000 C 209.758 86.000,209.614 86.315,209.632 86.700 M286.674 94.300 C 286.578 94.465,286.645 94.960,286.822 95.400 C 287.103 96.098,287.147 96.060,287.172 95.100 C 287.200 94.015,287.012 93.714,286.674 94.300 M288.556 105.255 C 288.524 106.119,288.620 106.314,288.890 105.933 C 289.161 105.553,289.213 105.658,289.072 106.301 C 288.955 106.835,289.035 107.102,289.270 106.957 C 289.487 106.823,289.547 106.237,289.404 105.656 C 289.015 104.078,288.606 103.885,288.556 105.255 M238.595 106.600 C 238.674 107.040,238.753 107.535,238.769 107.700 C 238.811 108.107,239.600 108.084,239.600 107.676 C 239.600 107.499,239.341 107.004,239.025 106.576 C 238.459 105.811,238.453 105.812,238.595 106.600 M289.314 115.800 C 289.317 116.900,289.395 117.303,289.487 116.695 C 289.579 116.086,289.577 115.186,289.482 114.695 C 289.387 114.203,289.311 114.700,289.314 115.800 M289.301 123.800 C 289.305 124.680,289.387 124.993,289.483 124.495 C 289.579 123.998,289.575 123.278,289.475 122.895 C 289.375 122.513,289.296 122.920,289.301 123.800 M238.681 130.133 C 238.568 130.427,238.729 130.667,239.038 130.667 C 239.347 130.667,239.600 130.427,239.600 130.133 C 239.600 129.840,239.439 129.600,239.243 129.600 C 239.046 129.600,238.793 129.840,238.681 130.133 M222.229 152.229 C 221.457 153.000,221.453 153.067,222.171 153.067 C 222.485 153.067,222.828 152.737,222.933 152.333 C 223.168 151.437,223.040 151.418,222.229 152.229 M281.443 155.433 C 281.293 155.823,281.382 156.006,281.675 155.908 C 282.273 155.709,282.602 154.800,282.076 154.800 C 281.861 154.800,281.576 155.085,281.443 155.433 M279.270 159.967 C 279.349 160.705,279.156 161.220,278.867 161.041 C 278.683 160.928,278.533 161.097,278.533 161.418 C 278.533 162.217,278.627 162.166,279.553 160.867 C 280.158 160.017,280.220 159.733,279.802 159.733 C 279.495 159.733,279.256 159.838,279.270 159.967 M205.900 163.076 C 205.068 163.293,204.959 164.000,205.757 164.000 C 206.064 164.000,206.418 163.730,206.545 163.400 C 206.671 163.070,206.736 162.821,206.687 162.846 C 206.639 162.872,206.285 162.975,205.900 163.076 M199.267 166.519 C 198.949 166.902,199.037 167.029,199.622 167.029 C 200.433 167.029,200.657 166.606,200.045 166.228 C 199.850 166.107,199.500 166.238,199.267 166.519 M194.000 169.037 C 194.000 169.656,195.023 169.811,195.372 169.245 C 195.492 169.050,195.233 168.797,194.796 168.683 C 194.280 168.548,194.000 168.673,194.000 169.037 M177.200 175.600 C 177.200 175.820,176.900 176.000,176.533 176.000 C 176.167 176.000,175.973 176.106,176.103 176.237 C 176.437 176.570,178.000 176.023,178.000 175.573 C 178.000 175.368,177.820 175.200,177.600 175.200 C 177.380 175.200,177.200 175.380,177.200 175.600 M166.619 178.769 C 166.498 178.965,166.804 179.037,167.299 178.928 C 168.023 178.769,168.082 178.815,167.600 179.159 C 167.270 179.395,167.203 179.591,167.451 179.594 C 168.457 179.608,168.783 178.573,167.798 178.492 C 167.271 178.448,166.740 178.573,166.619 178.769 M264.914 179.742 C 265.132 180.395,266.000 180.522,266.000 179.900 C 266.000 179.588,265.725 179.333,265.389 179.333 C 265.053 179.333,264.839 179.517,264.914 179.742 M279.886 193.320 C 279.742 193.694,279.799 194.000,280.013 194.000 C 280.226 194.000,280.400 194.270,280.400 194.600 C 280.400 195.266,281.024 195.409,281.385 194.825 C 281.512 194.618,281.369 194.303,281.067 194.125 C 280.765 193.946,280.434 193.539,280.332 193.220 C 280.182 192.752,280.097 192.771,279.886 193.320 M282.600 196.800 C 282.464 197.020,282.439 197.200,282.544 197.200 C 282.649 197.200,283.021 197.310,283.372 197.445 C 283.838 197.624,283.943 197.516,283.762 197.045 C 283.482 196.315,282.967 196.206,282.600 196.800 M287.388 202.020 C 287.007 202.635,287.528 203.032,288.042 202.518 C 288.329 202.231,288.336 202.007,288.062 201.839 C 287.839 201.700,287.535 201.782,287.388 202.020 M291.588 207.978 C 292.101 208.936,292.757 209.382,292.654 208.702 C 292.538 207.941,292.000 207.200,291.562 207.200 C 291.317 207.200,291.327 207.489,291.588 207.978 M220.000 212.000 C 220.000 212.532,220.267 212.800,220.796 212.800 C 221.554 212.800,221.559 212.761,220.907 212.000 C 220.530 211.560,220.172 211.200,220.111 211.200 C 220.050 211.200,220.000 211.560,220.000 212.000 M222.000 213.157 C 222.000 213.354,222.270 213.618,222.600 213.745 C 222.965 213.885,223.200 213.745,223.200 213.387 C 223.200 213.064,222.930 212.800,222.600 212.800 C 222.270 212.800,222.000 212.961,222.000 213.157 M213.632 214.100 C 213.614 214.485,213.758 214.800,213.951 214.800 C 214.144 214.800,214.549 214.485,214.851 214.100 C 215.342 213.475,215.330 213.455,214.739 213.917 C 214.199 214.339,214.040 214.339,213.870 213.917 C 213.739 213.588,213.652 213.655,213.632 214.100 M205.300 217.465 C 204.635 217.733,204.659 218.400,205.333 218.400 C 205.627 218.400,205.867 218.130,205.867 217.800 C 205.867 217.470,205.852 217.214,205.833 217.232 C 205.815 217.249,205.575 217.354,205.300 217.465 M234.000 219.835 C 234.000 220.146,234.135 220.397,234.300 220.394 C 234.670 220.386,235.877 219.626,235.600 219.576 C 235.490 219.555,235.085 219.478,234.700 219.405 C 234.301 219.328,234.000 219.513,234.000 219.835 M193.438 222.245 C 193.257 222.716,193.362 222.824,193.828 222.645 C 194.179 222.510,194.541 222.400,194.633 222.400 C 194.725 222.400,194.800 222.220,194.800 222.000 C 194.800 221.348,193.707 221.545,193.438 222.245 M300.400 222.557 C 300.400 222.864,300.650 223.210,300.955 223.327 C 301.344 223.477,301.449 223.310,301.308 222.770 C 301.076 221.884,300.400 221.726,300.400 222.557 M187.300 223.882 C 186.805 223.978,186.400 224.207,186.400 224.392 C 186.400 224.785,187.001 224.692,188.400 224.085 C 189.409 223.647,188.956 223.563,187.300 223.882 M301.600 224.753 C 301.600 225.193,301.780 225.664,302.000 225.800 C 302.220 225.936,302.400 225.687,302.400 225.247 C 302.400 224.807,302.220 224.336,302.000 224.200 C 301.780 224.064,301.600 224.313,301.600 224.753 M246.576 230.213 C 247.004 230.536,247.533 230.800,247.753 230.800 C 247.973 230.800,247.804 230.536,247.376 230.213 C 246.949 229.890,246.420 229.625,246.200 229.625 C 245.980 229.625,246.149 229.890,246.576 230.213 M161.800 230.800 C 161.360 230.989,161.120 231.156,161.267 231.172 C 161.414 231.187,161.849 231.321,162.233 231.468 C 162.684 231.641,162.836 231.582,162.663 231.302 C 162.516 231.064,162.621 230.777,162.898 230.666 C 163.174 230.554,163.220 230.462,163.000 230.460 C 162.780 230.458,162.240 230.611,161.800 230.800 M261.731 267.351 C 261.676 268.670,261.725 268.800,261.974 268.000 C 262.271 267.050,262.296 267.070,262.479 268.400 C 262.654 269.671,262.678 269.629,262.736 267.943 C 262.776 266.774,262.615 266.015,262.300 265.894 C 261.956 265.762,261.779 266.217,261.731 267.351 M262.441 271.200 C 262.398 272.007,262.310 272.084,261.988 271.600 C 261.694 271.159,261.624 271.398,261.726 272.499 C 261.802 273.323,262.014 274.133,262.196 274.299 C 262.379 274.465,262.408 274.390,262.260 274.132 C 262.113 273.875,262.225 273.425,262.509 273.132 C 262.838 272.793,262.929 272.165,262.760 271.400 C 262.518 270.304,262.490 270.287,262.441 271.200 M309.232 282.900 C 309.253 283.501,309.339 283.601,309.492 283.200 C 309.617 282.870,309.918 282.468,310.160 282.306 C 310.431 282.125,310.332 282.010,309.900 282.006 C 309.430 282.002,309.210 282.295,309.232 282.900 M308.989 288.683 C 308.583 289.624,308.427 290.400,308.645 290.400 C 308.903 290.400,309.650 288.317,309.461 288.127 C 309.372 288.038,309.159 288.288,308.989 288.683 M249.784 300.027 C 249.639 300.261,249.616 300.549,249.733 300.667 C 250.020 300.953,250.800 300.448,250.800 299.976 C 250.800 299.465,250.109 299.499,249.784 300.027 M246.500 303.065 C 245.868 303.320,245.842 304.400,246.467 304.400 C 246.723 304.400,246.815 304.282,246.670 304.137 C 246.525 303.992,246.607 303.632,246.852 303.337 C 247.324 302.768,247.294 302.745,246.500 303.065 M192.073 319.786 C 192.965 320.531,193.965 320.725,194.374 320.232 C 194.748 319.780,194.570 319.680,193.389 319.680 C 192.596 319.680,192.004 319.728,192.073 319.786 M292.000 326.800 C 291.670 327.013,291.542 327.191,291.716 327.194 C 291.889 327.197,291.799 327.451,291.516 327.758 C 291.232 328.065,290.842 328.220,290.648 328.102 C 290.455 327.985,290.376 328.127,290.473 328.419 C 290.570 328.711,290.889 329.030,291.181 329.127 C 291.480 329.227,291.597 329.119,291.449 328.880 C 291.305 328.646,291.369 328.343,291.591 328.205 C 291.974 327.969,292.957 326.393,292.714 326.406 C 292.651 326.409,292.330 326.587,292.000 326.800 M259.006 352.790 C 258.683 353.313,259.604 353.756,260.062 353.298 C 260.318 353.042,260.241 352.824,259.840 352.671 C 259.502 352.541,259.127 352.595,259.006 352.790 M249.278 357.624 C 248.801 358.387,248.825 358.415,249.593 358.004 C 250.049 357.760,250.317 357.389,250.188 357.180 C 249.875 356.674,249.870 356.676,249.278 357.624 M222.596 365.207 C 222.458 365.430,222.177 365.509,221.972 365.383 C 221.768 365.256,221.600 365.343,221.600 365.576 C 221.600 365.809,221.870 366.000,222.200 366.000 C 222.530 366.000,222.803 365.775,222.806 365.500 C 222.810 365.167,222.942 365.200,223.200 365.600 C 223.531 366.113,223.589 366.098,223.594 365.500 C 223.601 364.736,222.997 364.558,222.596 365.207 M197.462 369.300 C 197.564 369.465,197.997 369.600,198.424 369.600 C 198.851 369.600,199.200 369.465,199.200 369.300 C 199.200 369.135,198.767 369.000,198.238 369.000 C 197.709 369.000,197.360 369.135,197.462 369.300 M101.796 369.606 C 101.662 369.823,101.698 370.002,101.876 370.004 C 121.263 370.250,175.566 370.099,175.467 369.800 C 175.284 369.252,102.134 369.060,101.796 369.606 M183.300 369.487 C 183.905 369.578,184.895 369.578,185.500 369.487 C 186.105 369.395,185.610 369.320,184.400 369.320 C 183.190 369.320,182.695 369.395,183.300 369.487 " stroke="none" fill="#70bc44" fill-rule="evenodd"></path><path id="path2" d="M198.400 35.353 C 198.400 35.438,198.850 35.593,199.400 35.698 C 199.950 35.803,200.400 35.734,200.400 35.545 C 200.400 35.355,199.950 35.200,199.400 35.200 C 198.850 35.200,198.400 35.269,198.400 35.353 M208.800 36.373 C 208.800 36.594,208.485 36.664,208.100 36.529 C 207.563 36.340,207.505 36.396,207.851 36.772 C 208.099 37.042,208.819 37.202,209.451 37.128 C 210.596 36.995,210.597 36.993,209.700 36.483 C 209.171 36.182,208.800 36.137,208.800 36.373 M251.449 50.184 C 251.586 50.542,251.795 50.738,251.914 50.620 C 252.032 50.502,252.382 50.767,252.691 51.209 C 253.001 51.652,253.422 51.910,253.627 51.783 C 254.445 51.278,254.119 50.955,251.500 49.679 C 251.335 49.599,251.312 49.826,251.449 50.184 M166.720 83.100 C 174.549 83.172,178.754 83.351,178.596 83.606 C 178.450 83.843,179.081 84.000,180.176 84.000 C 181.217 84.000,182.000 83.814,182.000 83.567 C 182.000 83.304,181.453 83.208,180.600 83.323 C 179.830 83.427,179.200 83.352,179.200 83.156 C 179.200 82.954,173.891 82.841,166.900 82.894 L 154.600 82.988 166.720 83.100 M209.632 86.700 C 209.652 87.145,209.739 87.212,209.870 86.883 C 210.040 86.461,210.199 86.461,210.739 86.883 C 211.330 87.345,211.342 87.325,210.851 86.700 C 210.549 86.315,210.144 86.000,209.951 86.000 C 209.758 86.000,209.614 86.315,209.632 86.700 M286.674 94.300 C 286.578 94.465,286.645 94.960,286.822 95.400 C 287.103 96.098,287.147 96.060,287.172 95.100 C 287.200 94.015,287.012 93.714,286.674 94.300 M288.556 105.255 C 288.524 106.119,288.620 106.314,288.890 105.933 C 289.161 105.553,289.213 105.658,289.072 106.301 C 288.955 106.835,289.035 107.102,289.270 106.957 C 289.487 106.823,289.547 106.237,289.404 105.656 C 289.015 104.078,288.606 103.885,288.556 105.255 M238.595 106.600 C 238.674 107.040,238.753 107.535,238.769 107.700 C 238.811 108.107,239.600 108.084,239.600 107.676 C 239.600 107.499,239.341 107.004,239.025 106.576 C 238.459 105.811,238.453 105.812,238.595 106.600 M289.314 115.800 C 289.317 116.900,289.395 117.303,289.487 116.695 C 289.579 116.086,289.577 115.186,289.482 114.695 C 289.387 114.203,289.311 114.700,289.314 115.800 M289.301 123.800 C 289.305 124.680,289.387 124.993,289.483 124.495 C 289.579 123.998,289.575 123.278,289.475 122.895 C 289.375 122.513,289.296 122.920,289.301 123.800 M238.681 130.133 C 238.568 130.427,238.729 130.667,239.038 130.667 C 239.347 130.667,239.600 130.427,239.600 130.133 C 239.600 129.840,239.439 129.600,239.243 129.600 C 239.046 129.600,238.793 129.840,238.681 130.133 M222.229 152.229 C 221.457 153.000,221.453 153.067,222.171 153.067 C 222.485 153.067,222.828 152.737,222.933 152.333 C 223.168 151.437,223.040 151.418,222.229 152.229 M281.443 155.433 C 281.293 155.823,281.382 156.006,281.675 155.908 C 282.273 155.709,282.602 154.800,282.076 154.800 C 281.861 154.800,281.576 155.085,281.443 155.433 M279.270 159.967 C 279.349 160.705,279.156 161.220,278.867 161.041 C 278.683 160.928,278.533 161.097,278.533 161.418 C 278.533 162.217,278.627 162.166,279.553 160.867 C 280.158 160.017,280.220 159.733,279.802 159.733 C 279.495 159.733,279.256 159.838,279.270 159.967 M205.900 163.076 C 205.068 163.293,204.959 164.000,205.757 164.000 C 206.064 164.000,206.418 163.730,206.545 163.400 C 206.671 163.070,206.736 162.821,206.687 162.846 C 206.639 162.872,206.285 162.975,205.900 163.076 M199.267 166.519 C 198.949 166.902,199.037 167.029,199.622 167.029 C 200.433 167.029,200.657 166.606,200.045 166.228 C 199.850 166.107,199.500 166.238,199.267 166.519 M194.000 169.037 C 194.000 169.656,195.023 169.811,195.372 169.245 C 195.492 169.050,195.233 168.797,194.796 168.683 C 194.280 168.548,194.000 168.673,194.000 169.037 M177.200 175.600 C 177.200 175.820,176.900 176.000,176.533 176.000 C 176.167 176.000,175.973 176.106,176.103 176.237 C 176.437 176.570,178.000 176.023,178.000 175.573 C 178.000 175.368,177.820 175.200,177.600 175.200 C 177.380 175.200,177.200 175.380,177.200 175.600 M166.619 178.769 C 166.498 178.965,166.804 179.037,167.299 178.928 C 168.023 178.769,168.082 178.815,167.600 179.159 C 167.270 179.395,167.203 179.591,167.451 179.594 C 168.457 179.608,168.783 178.573,167.798 178.492 C 167.271 178.448,166.740 178.573,166.619 178.769 M264.914 179.742 C 265.132 180.395,266.000 180.522,266.000 179.900 C 266.000 179.588,265.725 179.333,265.389 179.333 C 265.053 179.333,264.839 179.517,264.914 179.742 M279.886 193.320 C 279.742 193.694,279.799 194.000,280.013 194.000 C 280.226 194.000,280.400 194.270,280.400 194.600 C 280.400 195.266,281.024 195.409,281.385 194.825 C 281.512 194.618,281.369 194.303,281.067 194.125 C 280.765 193.946,280.434 193.539,280.332 193.220 C 280.182 192.752,280.097 192.771,279.886 193.320 M282.600 196.800 C 282.464 197.020,282.439 197.200,282.544 197.200 C 282.649 197.200,283.021 197.310,283.372 197.445 C 283.838 197.624,283.943 197.516,283.762 197.045 C 283.482 196.315,282.967 196.206,282.600 196.800 M287.388 202.020 C 287.007 202.635,287.528 203.032,288.042 202.518 C 288.329 202.231,288.336 202.007,288.062 201.839 C 287.839 201.700,287.535 201.782,287.388 202.020 M291.588 207.978 C 292.101 208.936,292.757 209.382,292.654 208.702 C 292.538 207.941,292.000 207.200,291.562 207.200 C 291.317 207.200,291.327 207.489,291.588 207.978 M220.000 212.000 C 220.000 212.532,220.267 212.800,220.796 212.800 C 221.554 212.800,221.559 212.761,220.907 212.000 C 220.530 211.560,220.172 211.200,220.111 211.200 C 220.050 211.200,220.000 211.560,220.000 212.000 M222.000 213.157 C 222.000 213.354,222.270 213.618,222.600 213.745 C 222.965 213.885,223.200 213.745,223.200 213.387 C 223.200 213.064,222.930 212.800,222.600 212.800 C 222.270 212.800,222.000 212.961,222.000 213.157 M213.632 214.100 C 213.614 214.485,213.758 214.800,213.951 214.800 C 214.144 214.800,214.549 214.485,214.851 214.100 C 215.342 213.475,215.330 213.455,214.739 213.917 C 214.199 214.339,214.040 214.339,213.870 213.917 C 213.739 213.588,213.652 213.655,213.632 214.100 M205.300 217.465 C 204.635 217.733,204.659 218.400,205.333 218.400 C 205.627 218.400,205.867 218.130,205.867 217.800 C 205.867 217.470,205.852 217.214,205.833 217.232 C 205.815 217.249,205.575 217.354,205.300 217.465 M234.000 219.835 C 234.000 220.146,234.135 220.397,234.300 220.394 C 234.670 220.386,235.877 219.626,235.600 219.576 C 235.490 219.555,235.085 219.478,234.700 219.405 C 234.301 219.328,234.000 219.513,234.000 219.835 M193.438 222.245 C 193.257 222.716,193.362 222.824,193.828 222.645 C 194.179 222.510,194.541 222.400,194.633 222.400 C 194.725 222.400,194.800 222.220,194.800 222.000 C 194.800 221.348,193.707 221.545,193.438 222.245 M300.400 222.557 C 300.400 222.864,300.650 223.210,300.955 223.327 C 301.344 223.477,301.449 223.310,301.308 222.770 C 301.076 221.884,300.400 221.726,300.400 222.557 M187.300 223.882 C 186.805 223.978,186.400 224.207,186.400 224.392 C 186.400 224.785,187.001 224.692,188.400 224.085 C 189.409 223.647,188.956 223.563,187.300 223.882 M301.600 224.753 C 301.600 225.193,301.780 225.664,302.000 225.800 C 302.220 225.936,302.400 225.687,302.400 225.247 C 302.400 224.807,302.220 224.336,302.000 224.200 C 301.780 224.064,301.600 224.313,301.600 224.753 M246.576 230.213 C 247.004 230.536,247.533 230.800,247.753 230.800 C 247.973 230.800,247.804 230.536,247.376 230.213 C 246.949 229.890,246.420 229.625,246.200 229.625 C 245.980 229.625,246.149 229.890,246.576 230.213 M161.800 230.800 C 161.360 230.989,161.120 231.156,161.267 231.172 C 161.414 231.187,161.849 231.321,162.233 231.468 C 162.684 231.641,162.836 231.582,162.663 231.302 C 162.516 231.064,162.621 230.777,162.898 230.666 C 163.174 230.554,163.220 230.462,163.000 230.460 C 162.780 230.458,162.240 230.611,161.800 230.800 M261.731 267.351 C 261.676 268.670,261.725 268.800,261.974 268.000 C 262.271 267.050,262.296 267.070,262.479 268.400 C 262.654 269.671,262.678 269.629,262.736 267.943 C 262.776 266.774,262.615 266.015,262.300 265.894 C 261.956 265.762,261.779 266.217,261.731 267.351 M262.441 271.200 C 262.398 272.007,262.310 272.084,261.988 271.600 C 261.694 271.159,261.624 271.398,261.726 272.499 C 261.802 273.323,262.014 274.133,262.196 274.299 C 262.379 274.465,262.408 274.390,262.260 274.132 C 262.113 273.875,262.225 273.425,262.509 273.132 C 262.838 272.793,262.929 272.165,262.760 271.400 C 262.518 270.304,262.490 270.287,262.441 271.200 M309.232 282.900 C 309.253 283.501,309.339 283.601,309.492 283.200 C 309.617 282.870,309.918 282.468,310.160 282.306 C 310.431 282.125,310.332 282.010,309.900 282.006 C 309.430 282.002,309.210 282.295,309.232 282.900 M308.989 288.683 C 308.583 289.624,308.427 290.400,308.645 290.400 C 308.903 290.400,309.650 288.317,309.461 288.127 C 309.372 288.038,309.159 288.288,308.989 288.683 M249.784 300.027 C 249.639 300.261,249.616 300.549,249.733 300.667 C 250.020 300.953,250.800 300.448,250.800 299.976 C 250.800 299.465,250.109 299.499,249.784 300.027 M246.500 303.065 C 245.868 303.320,245.842 304.400,246.467 304.400 C 246.723 304.400,246.815 304.282,246.670 304.137 C 246.525 303.992,246.607 303.632,246.852 303.337 C 247.324 302.768,247.294 302.745,246.500 303.065 M192.073 319.786 C 192.965 320.531,193.965 320.725,194.374 320.232 C 194.748 319.780,194.570 319.680,193.389 319.680 C 192.596 319.680,192.004 319.728,192.073 319.786 M292.000 326.800 C 291.670 327.013,291.542 327.191,291.716 327.194 C 291.889 327.197,291.799 327.451,291.516 327.758 C 291.232 328.065,290.842 328.220,290.648 328.102 C 290.455 327.985,290.376 328.127,290.473 328.419 C 290.570 328.711,290.889 329.030,291.181 329.127 C 291.480 329.227,291.597 329.119,291.449 328.880 C 291.305 328.646,291.369 328.343,291.591 328.205 C 291.974 327.969,292.957 326.393,292.714 326.406 C 292.651 326.409,292.330 326.587,292.000 326.800 M259.006 352.790 C 258.683 353.313,259.604 353.756,260.062 353.298 C 260.318 353.042,260.241 352.824,259.840 352.671 C 259.502 352.541,259.127 352.595,259.006 352.790 M249.278 357.624 C 248.801 358.387,248.825 358.415,249.593 358.004 C 250.049 357.760,250.317 357.389,250.188 357.180 C 249.875 356.674,249.870 356.676,249.278 357.624 M222.596 365.207 C 222.458 365.430,222.177 365.509,221.972 365.383 C 221.768 365.256,221.600 365.343,221.600 365.576 C 221.600 365.809,221.870 366.000,222.200 366.000 C 222.530 366.000,222.803 365.775,222.806 365.500 C 222.810 365.167,222.942 365.200,223.200 365.600 C 223.531 366.113,223.589 366.098,223.594 365.500 C 223.601 364.736,222.997 364.558,222.596 365.207 M197.462 369.300 C 197.564 369.465,197.997 369.600,198.424 369.600 C 198.851 369.600,199.200 369.465,199.200 369.300 C 199.200 369.135,198.767 369.000,198.238 369.000 C 197.709 369.000,197.360 369.135,197.462 369.300 M101.796 369.606 C 101.662 369.823,101.698 370.002,101.876 370.004 C 121.263 370.250,175.566 370.099,175.467 369.800 C 175.284 369.252,102.134 369.060,101.796 369.606 M183.300 369.487 C 183.905 369.578,184.895 369.578,185.500 369.487 C 186.105 369.395,185.610 369.320,184.400 369.320 C 183.190 369.320,182.695 369.395,183.300 369.487 " stroke="none" fill="#70bc44" fill-rule="evenodd"></path><path id="path3" d="M198.400 35.353 C 198.400 35.438,198.850 35.593,199.400 35.698 C 199.950 35.803,200.400 35.734,200.400 35.545 C 200.400 35.355,199.950 35.200,199.400 35.200 C 198.850 35.200,198.400 35.269,198.400 35.353 M208.800 36.373 C 208.800 36.594,208.485 36.664,208.100 36.529 C 207.563 36.340,207.505 36.396,207.851 36.772 C 208.099 37.042,208.819 37.202,209.451 37.128 C 210.596 36.995,210.597 36.993,209.700 36.483 C 209.171 36.182,208.800 36.137,208.800 36.373 M251.449 50.184 C 251.586 50.542,251.795 50.738,251.914 50.620 C 252.032 50.502,252.382 50.767,252.691 51.209 C 253.001 51.652,253.422 51.910,253.627 51.783 C 254.445 51.278,254.119 50.955,251.500 49.679 C 251.335 49.599,251.312 49.826,251.449 50.184 M166.720 83.100 C 174.549 83.172,178.754 83.351,178.596 83.606 C 178.450 83.843,179.081 84.000,180.176 84.000 C 181.217 84.000,182.000 83.814,182.000 83.567 C 182.000 83.304,181.453 83.208,180.600 83.323 C 179.830 83.427,179.200 83.352,179.200 83.156 C 179.200 82.954,173.891 82.841,166.900 82.894 L 154.600 82.988 166.720 83.100 M209.632 86.700 C 209.652 87.145,209.739 87.212,209.870 86.883 C 210.040 86.461,210.199 86.461,210.739 86.883 C 211.330 87.345,211.342 87.325,210.851 86.700 C 210.549 86.315,210.144 86.000,209.951 86.000 C 209.758 86.000,209.614 86.315,209.632 86.700 M286.674 94.300 C 286.578 94.465,286.645 94.960,286.822 95.400 C 287.103 96.098,287.147 96.060,287.172 95.100 C 287.200 94.015,287.012 93.714,286.674 94.300 M288.556 105.255 C 288.524 106.119,288.620 106.314,288.890 105.933 C 289.161 105.553,289.213 105.658,289.072 106.301 C 288.955 106.835,289.035 107.102,289.270 106.957 C 289.487 106.823,289.547 106.237,289.404 105.656 C 289.015 104.078,288.606 103.885,288.556 105.255 M238.595 106.600 C 238.674 107.040,238.753 107.535,238.769 107.700 C 238.811 108.107,239.600 108.084,239.600 107.676 C 239.600 107.499,239.341 107.004,239.025 106.576 C 238.459 105.811,238.453 105.812,238.595 106.600 M289.314 115.800 C 289.317 116.900,289.395 117.303,289.487 116.695 C 289.579 116.086,289.577 115.186,289.482 114.695 C 289.387 114.203,289.311 114.700,289.314 115.800 M289.301 123.800 C 289.305 124.680,289.387 124.993,289.483 124.495 C 289.579 123.998,289.575 123.278,289.475 122.895 C 289.375 122.513,289.296 122.920,289.301 123.800 M238.681 130.133 C 238.568 130.427,238.729 130.667,239.038 130.667 C 239.347 130.667,239.600 130.427,239.600 130.133 C 239.600 129.840,239.439 129.600,239.243 129.600 C 239.046 129.600,238.793 129.840,238.681 130.133 M222.229 152.229 C 221.457 153.000,221.453 153.067,222.171 153.067 C 222.485 153.067,222.828 152.737,222.933 152.333 C 223.168 151.437,223.040 151.418,222.229 152.229 M281.443 155.433 C 281.293 155.823,281.382 156.006,281.675 155.908 C 282.273 155.709,282.602 154.800,282.076 154.800 C 281.861 154.800,281.576 155.085,281.443 155.433 M279.270 159.967 C 279.349 160.705,279.156 161.220,278.867 161.041 C 278.683 160.928,278.533 161.097,278.533 161.418 C 278.533 162.217,278.627 162.166,279.553 160.867 C 280.158 160.017,280.220 159.733,279.802 159.733 C 279.495 159.733,279.256 159.838,279.270 159.967 M205.900 163.076 C 205.068 163.293,204.959 164.000,205.757 164.000 C 206.064 164.000,206.418 163.730,206.545 163.400 C 206.671 163.070,206.736 162.821,206.687 162.846 C 206.639 162.872,206.285 162.975,205.900 163.076 M199.267 166.519 C 198.949 166.902,199.037 167.029,199.622 167.029 C 200.433 167.029,200.657 166.606,200.045 166.228 C 199.850 166.107,199.500 166.238,199.267 166.519 M194.000 169.037 C 194.000 169.656,195.023 169.811,195.372 169.245 C 195.492 169.050,195.233 168.797,194.796 168.683 C 194.280 168.548,194.000 168.673,194.000 169.037 M177.200 175.600 C 177.200 175.820,176.900 176.000,176.533 176.000 C 176.167 176.000,175.973 176.106,176.103 176.237 C 176.437 176.570,178.000 176.023,178.000 175.573 C 178.000 175.368,177.820 175.200,177.600 175.200 C 177.380 175.200,177.200 175.380,177.200 175.600 M166.619 178.769 C 166.498 178.965,166.804 179.037,167.299 178.928 C 168.023 178.769,168.082 178.815,167.600 179.159 C 167.270 179.395,167.203 179.591,167.451 179.594 C 168.457 179.608,168.783 178.573,167.798 178.492 C 167.271 178.448,166.740 178.573,166.619 178.769 M264.914 179.742 C 265.132 180.395,266.000 180.522,266.000 179.900 C 266.000 179.588,265.725 179.333,265.389 179.333 C 265.053 179.333,264.839 179.517,264.914 179.742 M279.886 193.320 C 279.742 193.694,279.799 194.000,280.013 194.000 C 280.226 194.000,280.400 194.270,280.400 194.600 C 280.400 195.266,281.024 195.409,281.385 194.825 C 281.512 194.618,281.369 194.303,281.067 194.125 C 280.765 193.946,280.434 193.539,280.332 193.220 C 280.182 192.752,280.097 192.771,279.886 193.320 M282.600 196.800 C 282.464 197.020,282.439 197.200,282.544 197.200 C 282.649 197.200,283.021 197.310,283.372 197.445 C 283.838 197.624,283.943 197.516,283.762 197.045 C 283.482 196.315,282.967 196.206,282.600 196.800 M287.388 202.020 C 287.007 202.635,287.528 203.032,288.042 202.518 C 288.329 202.231,288.336 202.007,288.062 201.839 C 287.839 201.700,287.535 201.782,287.388 202.020 M291.588 207.978 C 292.101 208.936,292.757 209.382,292.654 208.702 C 292.538 207.941,292.000 207.200,291.562 207.200 C 291.317 207.200,291.327 207.489,291.588 207.978 M220.000 212.000 C 220.000 212.532,220.267 212.800,220.796 212.800 C 221.554 212.800,221.559 212.761,220.907 212.000 C 220.530 211.560,220.172 211.200,220.111 211.200 C 220.050 211.200,220.000 211.560,220.000 212.000 M222.000 213.157 C 222.000 213.354,222.270 213.618,222.600 213.745 C 222.965 213.885,223.200 213.745,223.200 213.387 C 223.200 213.064,222.930 212.800,222.600 212.800 C 222.270 212.800,222.000 212.961,222.000 213.157 M213.632 214.100 C 213.614 214.485,213.758 214.800,213.951 214.800 C 214.144 214.800,214.549 214.485,214.851 214.100 C 215.342 213.475,215.330 213.455,214.739 213.917 C 214.199 214.339,214.040 214.339,213.870 213.917 C 213.739 213.588,213.652 213.655,213.632 214.100 M205.300 217.465 C 204.635 217.733,204.659 218.400,205.333 218.400 C 205.627 218.400,205.867 218.130,205.867 217.800 C 205.867 217.470,205.852 217.214,205.833 217.232 C 205.815 217.249,205.575 217.354,205.300 217.465 M234.000 219.835 C 234.000 220.146,234.135 220.397,234.300 220.394 C 234.670 220.386,235.877 219.626,235.600 219.576 C 235.490 219.555,235.085 219.478,234.700 219.405 C 234.301 219.328,234.000 219.513,234.000 219.835 M193.438 222.245 C 193.257 222.716,193.362 222.824,193.828 222.645 C 194.179 222.510,194.541 222.400,194.633 222.400 C 194.725 222.400,194.800 222.220,194.800 222.000 C 194.800 221.348,193.707 221.545,193.438 222.245 M300.400 222.557 C 300.400 222.864,300.650 223.210,300.955 223.327 C 301.344 223.477,301.449 223.310,301.308 222.770 C 301.076 221.884,300.400 221.726,300.400 222.557 M187.300 223.882 C 186.805 223.978,186.400 224.207,186.400 224.392 C 186.400 224.785,187.001 224.692,188.400 224.085 C 189.409 223.647,188.956 223.563,187.300 223.882 M301.600 224.753 C 301.600 225.193,301.780 225.664,302.000 225.800 C 302.220 225.936,302.400 225.687,302.400 225.247 C 302.400 224.807,302.220 224.336,302.000 224.200 C 301.780 224.064,301.600 224.313,301.600 224.753 M246.576 230.213 C 247.004 230.536,247.533 230.800,247.753 230.800 C 247.973 230.800,247.804 230.536,247.376 230.213 C 246.949 229.890,246.420 229.625,246.200 229.625 C 245.980 229.625,246.149 229.890,246.576 230.213 M161.800 230.800 C 161.360 230.989,161.120 231.156,161.267 231.172 C 161.414 231.187,161.849 231.321,162.233 231.468 C 162.684 231.641,162.836 231.582,162.663 231.302 C 162.516 231.064,162.621 230.777,162.898 230.666 C 163.174 230.554,163.220 230.462,163.000 230.460 C 162.780 230.458,162.240 230.611,161.800 230.800 M261.731 267.351 C 261.676 268.670,261.725 268.800,261.974 268.000 C 262.271 267.050,262.296 267.070,262.479 268.400 C 262.654 269.671,262.678 269.629,262.736 267.943 C 262.776 266.774,262.615 266.015,262.300 265.894 C 261.956 265.762,261.779 266.217,261.731 267.351 M262.441 271.200 C 262.398 272.007,262.310 272.084,261.988 271.600 C 261.694 271.159,261.624 271.398,261.726 272.499 C 261.802 273.323,262.014 274.133,262.196 274.299 C 262.379 274.465,262.408 274.390,262.260 274.132 C 262.113 273.875,262.225 273.425,262.509 273.132 C 262.838 272.793,262.929 272.165,262.760 271.400 C 262.518 270.304,262.490 270.287,262.441 271.200 M309.232 282.900 C 309.253 283.501,309.339 283.601,309.492 283.200 C 309.617 282.870,309.918 282.468,310.160 282.306 C 310.431 282.125,310.332 282.010,309.900 282.006 C 309.430 282.002,309.210 282.295,309.232 282.900 M308.989 288.683 C 308.583 289.624,308.427 290.400,308.645 290.400 C 308.903 290.400,309.650 288.317,309.461 288.127 C 309.372 288.038,309.159 288.288,308.989 288.683 M249.784 300.027 C 249.639 300.261,249.616 300.549,249.733 300.667 C 250.020 300.953,250.800 300.448,250.800 299.976 C 250.800 299.465,250.109 299.499,249.784 300.027 M246.500 303.065 C 245.868 303.320,245.842 304.400,246.467 304.400 C 246.723 304.400,246.815 304.282,246.670 304.137 C 246.525 303.992,246.607 303.632,246.852 303.337 C 247.324 302.768,247.294 302.745,246.500 303.065 M192.073 319.786 C 192.965 320.531,193.965 320.725,194.374 320.232 C 194.748 319.780,194.570 319.680,193.389 319.680 C 192.596 319.680,192.004 319.728,192.073 319.786 M292.000 326.800 C 291.670 327.013,291.542 327.191,291.716 327.194 C 291.889 327.197,291.799 327.451,291.516 327.758 C 291.232 328.065,290.842 328.220,290.648 328.102 C 290.455 327.985,290.376 328.127,290.473 328.419 C 290.570 328.711,290.889 329.030,291.181 329.127 C 291.480 329.227,291.597 329.119,291.449 328.880 C 291.305 328.646,291.369 328.343,291.591 328.205 C 291.974 327.969,292.957 326.393,292.714 326.406 C 292.651 326.409,292.330 326.587,292.000 326.800 M259.006 352.790 C 258.683 353.313,259.604 353.756,260.062 353.298 C 260.318 353.042,260.241 352.824,259.840 352.671 C 259.502 352.541,259.127 352.595,259.006 352.790 M249.278 357.624 C 248.801 358.387,248.825 358.415,249.593 358.004 C 250.049 357.760,250.317 357.389,250.188 357.180 C 249.875 356.674,249.870 356.676,249.278 357.624 M222.596 365.207 C 222.458 365.430,222.177 365.509,221.972 365.383 C 221.768 365.256,221.600 365.343,221.600 365.576 C 221.600 365.809,221.870 366.000,222.200 366.000 C 222.530 366.000,222.803 365.775,222.806 365.500 C 222.810 365.167,222.942 365.200,223.200 365.600 C 223.531 366.113,223.589 366.098,223.594 365.500 C 223.601 364.736,222.997 364.558,222.596 365.207 M197.462 369.300 C 197.564 369.465,197.997 369.600,198.424 369.600 C 198.851 369.600,199.200 369.465,199.200 369.300 C 199.200 369.135,198.767 369.000,198.238 369.000 C 197.709 369.000,197.360 369.135,197.462 369.300 M101.796 369.606 C 101.662 369.823,101.698 370.002,101.876 370.004 C 121.263 370.250,175.566 370.099,175.467 369.800 C 175.284 369.252,102.134 369.060,101.796 369.606 M183.300 369.487 C 183.905 369.578,184.895 369.578,185.500 369.487 C 186.105 369.395,185.610 369.320,184.400 369.320 C 183.190 369.320,182.695 369.395,183.300 369.487 " stroke="none" fill="#70bc44" fill-rule="evenodd"></path><path id="path4" d="M198.400 35.353 C 198.400 35.438,198.850 35.593,199.400 35.698 C 199.950 35.803,200.400 35.734,200.400 35.545 C 200.400 35.355,199.950 35.200,199.400 35.200 C 198.850 35.200,198.400 35.269,198.400 35.353 M208.800 36.373 C 208.800 36.594,208.485 36.664,208.100 36.529 C 207.563 36.340,207.505 36.396,207.851 36.772 C 208.099 37.042,208.819 37.202,209.451 37.128 C 210.596 36.995,210.597 36.993,209.700 36.483 C 209.171 36.182,208.800 36.137,208.800 36.373 M251.449 50.184 C 251.586 50.542,251.795 50.738,251.914 50.620 C 252.032 50.502,252.382 50.767,252.691 51.209 C 253.001 51.652,253.422 51.910,253.627 51.783 C 254.445 51.278,254.119 50.955,251.500 49.679 C 251.335 49.599,251.312 49.826,251.449 50.184 M166.720 83.100 C 174.549 83.172,178.754 83.351,178.596 83.606 C 178.450 83.843,179.081 84.000,180.176 84.000 C 181.217 84.000,182.000 83.814,182.000 83.567 C 182.000 83.304,181.453 83.208,180.600 83.323 C 179.830 83.427,179.200 83.352,179.200 83.156 C 179.200 82.954,173.891 82.841,166.900 82.894 L 154.600 82.988 166.720 83.100 M209.632 86.700 C 209.652 87.145,209.739 87.212,209.870 86.883 C 210.040 86.461,210.199 86.461,210.739 86.883 C 211.330 87.345,211.342 87.325,210.851 86.700 C 210.549 86.315,210.144 86.000,209.951 86.000 C 209.758 86.000,209.614 86.315,209.632 86.700 M286.674 94.300 C 286.578 94.465,286.645 94.960,286.822 95.400 C 287.103 96.098,287.147 96.060,287.172 95.100 C 287.200 94.015,287.012 93.714,286.674 94.300 M288.556 105.255 C 288.524 106.119,288.620 106.314,288.890 105.933 C 289.161 105.553,289.213 105.658,289.072 106.301 C 288.955 106.835,289.035 107.102,289.270 106.957 C 289.487 106.823,289.547 106.237,289.404 105.656 C 289.015 104.078,288.606 103.885,288.556 105.255 M238.595 106.600 C 238.674 107.040,238.753 107.535,238.769 107.700 C 238.811 108.107,239.600 108.084,239.600 107.676 C 239.600 107.499,239.341 107.004,239.025 106.576 C 238.459 105.811,238.453 105.812,238.595 106.600 M289.314 115.800 C 289.317 116.900,289.395 117.303,289.487 116.695 C 289.579 116.086,289.577 115.186,289.482 114.695 C 289.387 114.203,289.311 114.700,289.314 115.800 M289.301 123.800 C 289.305 124.680,289.387 124.993,289.483 124.495 C 289.579 123.998,289.575 123.278,289.475 122.895 C 289.375 122.513,289.296 122.920,289.301 123.800 M238.681 130.133 C 238.568 130.427,238.729 130.667,239.038 130.667 C 239.347 130.667,239.600 130.427,239.600 130.133 C 239.600 129.840,239.439 129.600,239.243 129.600 C 239.046 129.600,238.793 129.840,238.681 130.133 M222.229 152.229 C 221.457 153.000,221.453 153.067,222.171 153.067 C 222.485 153.067,222.828 152.737,222.933 152.333 C 223.168 151.437,223.040 151.418,222.229 152.229 M281.443 155.433 C 281.293 155.823,281.382 156.006,281.675 155.908 C 282.273 155.709,282.602 154.800,282.076 154.800 C 281.861 154.800,281.576 155.085,281.443 155.433 M279.270 159.967 C 279.349 160.705,279.156 161.220,278.867 161.041 C 278.683 160.928,278.533 161.097,278.533 161.418 C 278.533 162.217,278.627 162.166,279.553 160.867 C 280.158 160.017,280.220 159.733,279.802 159.733 C 279.495 159.733,279.256 159.838,279.270 159.967 M205.900 163.076 C 205.068 163.293,204.959 164.000,205.757 164.000 C 206.064 164.000,206.418 163.730,206.545 163.400 C 206.671 163.070,206.736 162.821,206.687 162.846 C 206.639 162.872,206.285 162.975,205.900 163.076 M199.267 166.519 C 198.949 166.902,199.037 167.029,199.622 167.029 C 200.433 167.029,200.657 166.606,200.045 166.228 C 199.850 166.107,199.500 166.238,199.267 166.519 M194.000 169.037 C 194.000 169.656,195.023 169.811,195.372 169.245 C 195.492 169.050,195.233 168.797,194.796 168.683 C 194.280 168.548,194.000 168.673,194.000 169.037 M177.200 175.600 C 177.200 175.820,176.900 176.000,176.533 176.000 C 176.167 176.000,175.973 176.106,176.103 176.237 C 176.437 176.570,178.000 176.023,178.000 175.573 C 178.000 175.368,177.820 175.200,177.600 175.200 C 177.380 175.200,177.200 175.380,177.200 175.600 M166.619 178.769 C 166.498 178.965,166.804 179.037,167.299 178.928 C 168.023 178.769,168.082 178.815,167.600 179.159 C 167.270 179.395,167.203 179.591,167.451 179.594 C 168.457 179.608,168.783 178.573,167.798 178.492 C 167.271 178.448,166.740 178.573,166.619 178.769 M264.914 179.742 C 265.132 180.395,266.000 180.522,266.000 179.900 C 266.000 179.588,265.725 179.333,265.389 179.333 C 265.053 179.333,264.839 179.517,264.914 179.742 M279.886 193.320 C 279.742 193.694,279.799 194.000,280.013 194.000 C 280.226 194.000,280.400 194.270,280.400 194.600 C 280.400 195.266,281.024 195.409,281.385 194.825 C 281.512 194.618,281.369 194.303,281.067 194.125 C 280.765 193.946,280.434 193.539,280.332 193.220 C 280.182 192.752,280.097 192.771,279.886 193.320 M282.600 196.800 C 282.464 197.020,282.439 197.200,282.544 197.200 C 282.649 197.200,283.021 197.310,283.372 197.445 C 283.838 197.624,283.943 197.516,283.762 197.045 C 283.482 196.315,282.967 196.206,282.600 196.800 M287.388 202.020 C 287.007 202.635,287.528 203.032,288.042 202.518 C 288.329 202.231,288.336 202.007,288.062 201.839 C 287.839 201.700,287.535 201.782,287.388 202.020 M291.588 207.978 C 292.101 208.936,292.757 209.382,292.654 208.702 C 292.538 207.941,292.000 207.200,291.562 207.200 C 291.317 207.200,291.327 207.489,291.588 207.978 M220.000 212.000 C 220.000 212.532,220.267 212.800,220.796 212.800 C 221.554 212.800,221.559 212.761,220.907 212.000 C 220.530 211.560,220.172 211.200,220.111 211.200 C 220.050 211.200,220.000 211.560,220.000 212.000 M222.000 213.157 C 222.000 213.354,222.270 213.618,222.600 213.745 C 222.965 213.885,223.200 213.745,223.200 213.387 C 223.200 213.064,222.930 212.800,222.600 212.800 C 222.270 212.800,222.000 212.961,222.000 213.157 M213.632 214.100 C 213.614 214.485,213.758 214.800,213.951 214.800 C 214.144 214.800,214.549 214.485,214.851 214.100 C 215.342 213.475,215.330 213.455,214.739 213.917 C 214.199 214.339,214.040 214.339,213.870 213.917 C 213.739 213.588,213.652 213.655,213.632 214.100 M205.300 217.465 C 204.635 217.733,204.659 218.400,205.333 218.400 C 205.627 218.400,205.867 218.130,205.867 217.800 C 205.867 217.470,205.852 217.214,205.833 217.232 C 205.815 217.249,205.575 217.354,205.300 217.465 M234.000 219.835 C 234.000 220.146,234.135 220.397,234.300 220.394 C 234.670 220.386,235.877 219.626,235.600 219.576 C 235.490 219.555,235.085 219.478,234.700 219.405 C 234.301 219.328,234.000 219.513,234.000 219.835 M193.438 222.245 C 193.257 222.716,193.362 222.824,193.828 222.645 C 194.179 222.510,194.541 222.400,194.633 222.400 C 194.725 222.400,194.800 222.220,194.800 222.000 C 194.800 221.348,193.707 221.545,193.438 222.245 M300.400 222.557 C 300.400 222.864,300.650 223.210,300.955 223.327 C 301.344 223.477,301.449 223.310,301.308 222.770 C 301.076 221.884,300.400 221.726,300.400 222.557 M187.300 223.882 C 186.805 223.978,186.400 224.207,186.400 224.392 C 186.400 224.785,187.001 224.692,188.400 224.085 C 189.409 223.647,188.956 223.563,187.300 223.882 M301.600 224.753 C 301.600 225.193,301.780 225.664,302.000 225.800 C 302.220 225.936,302.400 225.687,302.400 225.247 C 302.400 224.807,302.220 224.336,302.000 224.200 C 301.780 224.064,301.600 224.313,301.600 224.753 M246.576 230.213 C 247.004 230.536,247.533 230.800,247.753 230.800 C 247.973 230.800,247.804 230.536,247.376 230.213 C 246.949 229.890,246.420 229.625,246.200 229.625 C 245.980 229.625,246.149 229.890,246.576 230.213 M161.800 230.800 C 161.360 230.989,161.120 231.156,161.267 231.172 C 161.414 231.187,161.849 231.321,162.233 231.468 C 162.684 231.641,162.836 231.582,162.663 231.302 C 162.516 231.064,162.621 230.777,162.898 230.666 C 163.174 230.554,163.220 230.462,163.000 230.460 C 162.780 230.458,162.240 230.611,161.800 230.800 M261.731 267.351 C 261.676 268.670,261.725 268.800,261.974 268.000 C 262.271 267.050,262.296 267.070,262.479 268.400 C 262.654 269.671,262.678 269.629,262.736 267.943 C 262.776 266.774,262.615 266.015,262.300 265.894 C 261.956 265.762,261.779 266.217,261.731 267.351 M262.441 271.200 C 262.398 272.007,262.310 272.084,261.988 271.600 C 261.694 271.159,261.624 271.398,261.726 272.499 C 261.802 273.323,262.014 274.133,262.196 274.299 C 262.379 274.465,262.408 274.390,262.260 274.132 C 262.113 273.875,262.225 273.425,262.509 273.132 C 262.838 272.793,262.929 272.165,262.760 271.400 C 262.518 270.304,262.490 270.287,262.441 271.200 M309.232 282.900 C 309.253 283.501,309.339 283.601,309.492 283.200 C 309.617 282.870,309.918 282.468,310.160 282.306 C 310.431 282.125,310.332 282.010,309.900 282.006 C 309.430 282.002,309.210 282.295,309.232 282.900 M308.989 288.683 C 308.583 289.624,308.427 290.400,308.645 290.400 C 308.903 290.400,309.650 288.317,309.461 288.127 C 309.372 288.038,309.159 288.288,308.989 288.683 M249.784 300.027 C 249.639 300.261,249.616 300.549,249.733 300.667 C 250.020 300.953,250.800 300.448,250.800 299.976 C 250.800 299.465,250.109 299.499,249.784 300.027 M246.500 303.065 C 245.868 303.320,245.842 304.400,246.467 304.400 C 246.723 304.400,246.815 304.282,246.670 304.137 C 246.525 303.992,246.607 303.632,246.852 303.337 C 247.324 302.768,247.294 302.745,246.500 303.065 M192.073 319.786 C 192.965 320.531,193.965 320.725,194.374 320.232 C 194.748 319.780,194.570 319.680,193.389 319.680 C 192.596 319.680,192.004 319.728,192.073 319.786 M292.000 326.800 C 291.670 327.013,291.542 327.191,291.716 327.194 C 291.889 327.197,291.799 327.451,291.516 327.758 C 291.232 328.065,290.842 328.220,290.648 328.102 C 290.455 327.985,290.376 328.127,290.473 328.419 C 290.570 328.711,290.889 329.030,291.181 329.127 C 291.480 329.227,291.597 329.119,291.449 328.880 C 291.305 328.646,291.369 328.343,291.591 328.205 C 291.974 327.969,292.957 326.393,292.714 326.406 C 292.651 326.409,292.330 326.587,292.000 326.800 M259.006 352.790 C 258.683 353.313,259.604 353.756,260.062 353.298 C 260.318 353.042,260.241 352.824,259.840 352.671 C 259.502 352.541,259.127 352.595,259.006 352.790 M249.278 357.624 C 248.801 358.387,248.825 358.415,249.593 358.004 C 250.049 357.760,250.317 357.389,250.188 357.180 C 249.875 356.674,249.870 356.676,249.278 357.624 M222.596 365.207 C 222.458 365.430,222.177 365.509,221.972 365.383 C 221.768 365.256,221.600 365.343,221.600 365.576 C 221.600 365.809,221.870 366.000,222.200 366.000 C 222.530 366.000,222.803 365.775,222.806 365.500 C 222.810 365.167,222.942 365.200,223.200 365.600 C 223.531 366.113,223.589 366.098,223.594 365.500 C 223.601 364.736,222.997 364.558,222.596 365.207 M197.462 369.300 C 197.564 369.465,197.997 369.600,198.424 369.600 C 198.851 369.600,199.200 369.465,199.200 369.300 C 199.200 369.135,198.767 369.000,198.238 369.000 C 197.709 369.000,197.360 369.135,197.462 369.300 M101.796 369.606 C 101.662 369.823,101.698 370.002,101.876 370.004 C 121.263 370.250,175.566 370.099,175.467 369.800 C 175.284 369.252,102.134 369.060,101.796 369.606 M183.300 369.487 C 183.905 369.578,184.895 369.578,185.500 369.487 C 186.105 369.395,185.610 369.320,184.400 369.320 C 183.190 369.320,182.695 369.395,183.300 369.487 " stroke="none" fill="#70bc44" fill-rule="evenodd"></path></g></svg>